<svg id="Calque_1" data-name="Calque 1" xmlns="http://www.w3.org/2000/svg" viewBox="0 0 330 110.35"><title>aseelLogo-white</title><path d="M296.71,101.54a7.82,7.82,0,0,1-6.58,3.4c-2.66,0-4.5-.65-5.49-2s-1.5-3.75-1.5-7.33V7.82a18.57,18.57,0,0,1-4.75,5.59,39.77,39.77,0,0,1-6,3.71l-2.06,1.13q-6.55,4.11-6.55,11.29V95.45A25.3,25.3,0,0,1,253.62,104a36.46,36.46,0,0,1-15.48,3.4l-1.63-.06a13.35,13.35,0,0,1-8.55-3.09q-3.68-3-5.11-9.7l1.62-.94q1.36-.87,7.43-4.18,5.29-2.87,10.2-6.15a33.39,33.39,0,0,0,8.24-7.71,21.25,21.25,0,0,0,4-10.73l.13-2.31q0-10.36-8.36-17.6c-1.75-1.42-3.69-2.87-5.81-4.37a11.84,11.84,0,0,1-4.74,6,74.65,74.65,0,0,1-8.68,5.24q-4.18,2.19-8.46,4.87a44.43,44.43,0,0,0-7.92,6.37,28.8,28.8,0,0,0-5.9,8.8,30.25,30.25,0,0,0-2.25,12.23v3.19a39.66,39.66,0,0,0,.82,8,25.33,25.33,0,0,1-10.3,8.71,36.46,36.46,0,0,1-15.48,3.4l-1.63-.06a13.35,13.35,0,0,1-8.55-3.09q-3.67-3-5.11-9.7l1.62-.94q1.37-.87,7.43-4.18,5.29-2.87,10.2-6.15a33.39,33.39,0,0,0,8.24-7.71,21.25,21.25,0,0,0,4-10.73l.13-2.31q0-10.36-8.36-17.6c-1.75-1.42-3.69-2.87-5.81-4.37a11.84,11.84,0,0,1-4.74,6,74.65,74.65,0,0,1-8.68,5.24Q162,54,157.72,56.69a44.14,44.14,0,0,0-7.93,6.37,28.8,28.8,0,0,0-5.9,8.8,30.25,30.25,0,0,0-2.25,12.23v2a15.61,15.61,0,0,0-4.19-8.63,25.12,25.12,0,0,0-4.18-3.5A74.55,74.55,0,0,0,125,68.86c-2.24-1.24-4.16-2.37-5.74-3.37a21.53,21.53,0,0,0,7.87-10.67,15.79,15.79,0,0,0,.56-4.12,16.28,16.28,0,0,0-.56-4.37,19.08,19.08,0,0,0-2.81-5.62l-.13-.24a26.29,26.29,0,0,1-2.78,4.58,20.43,20.43,0,0,1-4.24,4.15,33.59,33.59,0,0,1-5.77,3.44A30.5,30.5,0,0,1,99.69,56l-7.36,14.1-1.19,2q9.42,5.25,14.92,8.11,3.68,1.88,7.55,3.75,11.67,5.61,15.23,8.11,2.81,1.94,2.93,3.81a3.94,3.94,0,0,1-2,3.06,18.28,18.28,0,0,1-4.78,2.43,27.47,27.47,0,0,1-9,1.5,23,23,0,0,1-3.44-.25A19,19,0,0,1,102.38,98Q97.63,93,97.63,87.09a8.21,8.21,0,0,1,.63-3.43,9.67,9.67,0,0,1,.68-1.44,2.2,2.2,0,0,0,.38-.87c0-.17-.11-.25-.31-.25a7.28,7.28,0,0,0-2.25.68,20.11,20.11,0,0,0-9.18,7.43A16.89,16.89,0,0,0,85.28,97a16.86,16.86,0,0,1-.63,1.81,11.8,11.8,0,0,1-3.18,4.46A7.46,7.46,0,0,1,76.41,105,8.16,8.16,0,0,1,72,104a4.8,4.8,0,0,1-2-3,23,23,0,0,1-.5-5.25V34.22A27.62,27.62,0,0,1,59.15,45.68,123.92,123.92,0,0,1,44,54.2q-4.68,2.31-8.87,4.62A61.46,61.46,0,0,0,20.93,69.18a31.14,31.14,0,0,0-8.24,15.41A31.5,31.5,0,0,0,12,91.15a32.58,32.58,0,0,0,1.84,10.79,25.58,25.58,0,0,0,5.53,9.24,21.77,21.77,0,0,0,16,6.87,16.39,16.39,0,0,0,10.7-3.4,24.21,24.21,0,0,0,6.65-9,17.74,17.74,0,0,0,5.21,9q3.7,3.32,10.27,3.31,8.85,0,14.1-4.75a25.09,25.09,0,0,0,5.48-7,24,24,0,0,0,11.37,9.34,35.29,35.29,0,0,0,12.8,2.31,30.66,30.66,0,0,0,16.29-4.37,32.07,32.07,0,0,0,6.8-5.43,23.82,23.82,0,0,0,6.37-12.79,31.25,31.25,0,0,0,.42-3.81,41.7,41.7,0,0,0,3.33,12.3,23.76,23.76,0,0,0,9.74,10.89,27.2,27.2,0,0,0,13.54,3.46h1.37a52.09,52.09,0,0,0,15.92-3.34,45.85,45.85,0,0,0,14.2-8.42,33.06,33.06,0,0,0,4.88-5.32c.33.91.68,1.82,1.08,2.73a23.76,23.76,0,0,0,9.74,10.89,27.2,27.2,0,0,0,13.54,3.46h1.37a52.09,52.09,0,0,0,15.92-3.34,45.85,45.85,0,0,0,14.2-8.42,33.45,33.45,0,0,0,3.54-3.61,21.62,21.62,0,0,0,3.73,9.41q4.18,5.72,14.48,5.71a21.36,21.36,0,0,0,13.11-4.18q7.68-5.74,9.74-20.66h-5.62A16.18,16.18,0,0,1,296.71,101.54ZM50.07,92.83a17.45,17.45,0,0,1-1.28,6.62,9.08,9.08,0,0,1-4.4,4.8,8.67,8.67,0,0,1-3.68.94,6.48,6.48,0,0,1-5.24-2.5q-4-4.8-4-14,0-11.24,4.31-17.66,3.3-4.93,10.92-9.3l3.37-1.94ZM161,71.67a14.19,14.19,0,0,1,1.38-6.55,10.16,10.16,0,0,1,3.52-4.06,8.23,8.23,0,0,1,4.46-1.37,8.57,8.57,0,0,1,8.31,8.36,12,12,0,0,1-3.09,7.74,26.69,26.69,0,0,1-7.15,6.12c-1.62,1-3,1.73-4.18,2.31L161,86Zm60.73,0a14.32,14.32,0,0,1,1.37-6.55,10.25,10.25,0,0,1,3.53-4.06,8.23,8.23,0,0,1,4.46-1.37,8.57,8.57,0,0,1,8.31,8.36,12,12,0,0,1-3.09,7.74,26.69,26.69,0,0,1-7.15,6.12c-1.62,1-3,1.73-4.18,2.31L221.72,86Z" transform="translate(-12 -7.82)" style="fill:#fff"/><polygon points="325.71 91.4 325.71 85.33 319.64 85.33 315.35 81.04 311.06 85.33 304.99 85.33 304.99 91.4 300.7 95.69 304.99 99.98 304.99 106.05 311.06 106.05 315.35 110.34 319.64 106.05 325.71 106.05 325.71 99.98 330 95.69 325.71 91.4" style="fill:#fff"/></svg>