<svg id="Calque_1" data-name="Calque 1" xmlns="http://www.w3.org/2000/svg" xmlns:xlink="http://www.w3.org/1999/xlink" viewBox="0 0 98 32.77"><defs><style>.cls-1{fill:url(#åçûìßííûé_ãðàäèåíò_21);}.cls-2{fill:url(#åçûìßííûé_ãðàäèåíò_29);}</style><linearGradient id="åçûìßííûé_ãðàäèåíò_21" x1="1" y1="17.25" x2="88.1" y2="17.25" gradientUnits="userSpaceOnUse"><stop offset="0" stop-color="#bf2f37"/><stop offset="1" stop-color="#9f2437"/></linearGradient><linearGradient id="åçûìßííûé_ãðàäèåíò_29" x1="89.3" y1="28.42" x2="98" y2="28.42" gradientUnits="userSpaceOnUse"><stop offset="0" stop-color="#f1b04c"/><stop offset="1" stop-color="#ff9733"/></linearGradient></defs><title>aseelLogo</title><path class="cls-1" d="M85.55,28.7a2.33,2.33,0,0,1-2,1A2,2,0,0,1,82,29.12a3.86,3.86,0,0,1-.44-2.18V.87a5.53,5.53,0,0,1-1.41,1.65,11.46,11.46,0,0,1-1.78,1.11L77.72,4a3.79,3.79,0,0,0-2,3.36V26.89a7.47,7.47,0,0,1-3,2.53,10.89,10.89,0,0,1-4.59,1l-.49,0a4,4,0,0,1-2.54-.92,5,5,0,0,1-1.52-2.88l.49-.28c.27-.17,1-.58,2.2-1.24,1-.57,2.06-1.18,3-1.82A10.13,10.13,0,0,0,71.78,21,6.28,6.28,0,0,0,73,17.79l0-.69a6.67,6.67,0,0,0-2.48-5.22c-.52-.42-1.1-.86-1.73-1.3a3.54,3.54,0,0,1-1.4,1.8,22.51,22.51,0,0,1-2.58,1.55c-.83.44-1.67.92-2.51,1.45A13.23,13.23,0,0,0,60,17.27a8.73,8.73,0,0,0-1.75,2.61,9.13,9.13,0,0,0-.67,3.64v.94a11.77,11.77,0,0,0,.25,2.37,7.51,7.51,0,0,1-3.06,2.59,10.9,10.9,0,0,1-4.6,1l-.48,0a4,4,0,0,1-2.54-.92,4.91,4.91,0,0,1-1.52-2.88l.48-.28c.27-.17,1-.58,2.21-1.24,1-.57,2.06-1.18,3-1.82A10.09,10.09,0,0,0,53.74,21a6.29,6.29,0,0,0,1.2-3.19l0-.69a6.64,6.64,0,0,0-2.49-5.22c-.52-.42-1.09-.86-1.72-1.3a3.51,3.51,0,0,1-1.41,1.8,22.51,22.51,0,0,1-2.58,1.55c-.82.44-1.66.92-2.51,1.45a13.16,13.16,0,0,0-2.35,1.89,8.54,8.54,0,0,0-1.75,2.61,9,9,0,0,0-.67,3.64v.58a4.68,4.68,0,0,0-1.24-2.57,8.21,8.21,0,0,0-1.25-1A25,25,0,0,0,34.57,19c-.67-.37-1.24-.7-1.71-1a6.41,6.41,0,0,0,2.34-3.17,4.59,4.59,0,0,0,.16-1.22,4.87,4.87,0,0,0-.16-1.3,5.56,5.56,0,0,0-.84-1.67l0-.07a8.4,8.4,0,0,1-.83,1.36,6.15,6.15,0,0,1-1.26,1.23,9,9,0,0,1-1.71,1,9,9,0,0,1-3.49,1l-2.19,4.18-.35.6q2.81,1.56,4.43,2.41l2.25,1.11a38.3,38.3,0,0,1,4.52,2.41A1.7,1.7,0,0,1,36.57,27a1.2,1.2,0,0,1-.58.91,5.89,5.89,0,0,1-1.42.72,8.14,8.14,0,0,1-2.67.45,6.8,6.8,0,0,1-1-.08,5.67,5.67,0,0,1-3-1.37,4.66,4.66,0,0,1-1.41-3.24,2.35,2.35,0,0,1,.19-1,2.89,2.89,0,0,1,.2-.43.68.68,0,0,0,.11-.26c0-.05,0-.07-.09-.07a1.94,1.94,0,0,0-.67.2A5.86,5.86,0,0,0,23.45,25a4.87,4.87,0,0,0-.69,2.29,4.27,4.27,0,0,1-.18.54,3.68,3.68,0,0,1-.95,1.33,2.24,2.24,0,0,1-1.5.53,2.45,2.45,0,0,1-1.33-.3,1.45,1.45,0,0,1-.6-.91A6.74,6.74,0,0,1,18.05,27V8.71A8.27,8.27,0,0,1,15,12.11a37.76,37.76,0,0,1-4.51,2.53c-.93.45-1.8.91-2.63,1.37a18.37,18.37,0,0,0-4.21,3.08A9.29,9.29,0,0,0,1.2,23.66,9.93,9.93,0,0,0,1,25.61a9.59,9.59,0,0,0,.55,3.21,7.54,7.54,0,0,0,1.64,2.74,6.49,6.49,0,0,0,2.19,1.53A6.58,6.58,0,0,0,8,33.6a4.87,4.87,0,0,0,3.18-1,7.1,7.1,0,0,0,2-2.66,5.35,5.35,0,0,0,1.55,2.69,4.45,4.45,0,0,0,3,1,6,6,0,0,0,4.19-1.41,7.61,7.61,0,0,0,1.63-2.09,7.13,7.13,0,0,0,3.37,2.78,10.67,10.67,0,0,0,3.8.68,9.07,9.07,0,0,0,4.84-1.3,9.17,9.17,0,0,0,2-1.61,7.11,7.11,0,0,0,1.89-3.8,8.69,8.69,0,0,0,.13-1.13,12.1,12.1,0,0,0,1,3.65,7,7,0,0,0,2.89,3.24,8.13,8.13,0,0,0,4,1h.41a15.52,15.52,0,0,0,4.72-1,13.51,13.51,0,0,0,4.22-2.5,9.41,9.41,0,0,0,1.45-1.58c.1.27.2.54.32.81a7.14,7.14,0,0,0,2.89,3.24,8.19,8.19,0,0,0,4,1h.4a15.64,15.64,0,0,0,4.73-1,13.63,13.63,0,0,0,4.22-2.5,9.64,9.64,0,0,0,1-1.07A6.45,6.45,0,0,0,77,31.87c.82,1.13,2.26,1.69,4.3,1.69a6.32,6.32,0,0,0,3.89-1.24q2.28-1.71,2.89-6.13H86.43A4.78,4.78,0,0,1,85.55,28.7ZM12.31,26.11a5.31,5.31,0,0,1-.38,2,2.71,2.71,0,0,1-1.31,1.42,2.55,2.55,0,0,1-1.09.28A2,2,0,0,1,8,29a6.38,6.38,0,0,1-1.19-4.17,9.37,9.37,0,0,1,1.28-5.25,9.69,9.69,0,0,1,3.25-2.76l1-.57Zm32.94-6.28a4.26,4.26,0,0,1,.4-1.95,3,3,0,0,1,1.05-1.2A2.39,2.39,0,0,1,48,16.27a2.54,2.54,0,0,1,2.46,2.48,3.54,3.54,0,0,1-.92,2.3,8,8,0,0,1-2.12,1.82c-.48.28-.89.51-1.24.68l-1,.52Zm18,0a4.26,4.26,0,0,1,.41-1.95,3,3,0,0,1,1-1.2,2.33,2.33,0,0,1,1.32-.41,2.56,2.56,0,0,1,2.47,2.48,3.6,3.6,0,0,1-.92,2.3,8,8,0,0,1-2.12,1.82c-.49.28-.9.51-1.25.68l-1,.52Z" transform="translate(-1 -0.87)"/><polygon class="cls-2" points="96.73 27.14 96.73 25.34 94.92 25.34 93.65 24.07 92.38 25.34 90.57 25.34 90.57 27.14 89.3 28.42 90.57 29.69 90.57 31.49 92.38 31.49 93.65 32.77 94.92 31.49 96.73 31.49 96.73 29.69 98 28.42 96.73 27.14"/></svg>