<svg id="Calque_1" data-name="Calque 1" xmlns="http://www.w3.org/2000/svg" xmlns:xlink="http://www.w3.org/1999/xlink" viewBox="0 0 965.49 150.58"><defs><linearGradient id="åçûìßííûé_ãðàäèåíò_21" x1="488.82" y1="-115.4" x2="488.82" y2="76.7" gradientTransform="translate(0.88 40.61) rotate(-5.48)" gradientUnits="userSpaceOnUse"><stop offset="0" stop-color="#bf2e37"/><stop offset="1" stop-color="#9f2337"/></linearGradient><linearGradient id="åçûìßííûé_ãðàäèåíò_21-2" x1="855.48" y1="25.93" x2="904.04" y2="25.93" gradientTransform="matrix(1, 0, 0, 1, 0, 0)" xlink:href="#åçûìßííûé_ãðàäèåíò_21"/><linearGradient id="åçûìßííûé_ãðàäèåíò_21-3" x1="856.67" y1="25.93" x2="902.86" y2="25.93" gradientTransform="matrix(1, 0, 0, 1, 0, 0)" xlink:href="#åçûìßííûé_ãðàäèåíò_21"/><linearGradient id="åçûìßííûé_ãðàäèåíò_21-4" x1="838.46" y1="25.93" x2="921.07" y2="25.93" gradientTransform="matrix(1, 0, 0, 1, 0, 0)" xlink:href="#åçûìßííûé_ãðàäèåíò_21"/><linearGradient id="åçûìßííûé_ãðàäèåíò_21-5" x1="154.09" y1="133.17" x2="188.92" y2="133.17" gradientTransform="matrix(1, 0, 0, 1, 0, 0)" xlink:href="#åçûìßííûé_ãðàäèåíò_21"/><linearGradient id="åçûìßííûé_ãðàäèåíò_151" x1="258.59" y1="133.17" x2="293.42" y2="133.17" gradientUnits="userSpaceOnUse"><stop offset="0" stop-color="#218283"/><stop offset="1" stop-color="#278c83"/></linearGradient><linearGradient id="åçûìßííûé_ãðàäèåíò_12" x1="188.92" y1="133.17" x2="223.75" y2="133.17" gradientUnits="userSpaceOnUse"><stop offset="0" stop-color="#eb6a48"/><stop offset="1" stop-color="#f86134"/></linearGradient><linearGradient id="åçûìßííûé_ãðàäèåíò_29" x1="223.75" y1="133.17" x2="258.59" y2="133.17" gradientUnits="userSpaceOnUse"><stop offset="0" stop-color="#f0b04c"/><stop offset="1" stop-color="#f79733"/></linearGradient><linearGradient id="åçûìßííûé_ãðàäèåíò_21-6" x1="44.91" y1="24.63" x2="135.66" y2="24.63" gradientTransform="matrix(1, 0, 0, 1, 0, 0)" xlink:href="#åçûìßííûé_ãðàäèåíò_21"/><linearGradient id="åçûìßííûé_ãðàäèåíò_21-7" x1="71.58" y1="24.63" x2="108.99" y2="24.63" gradientTransform="matrix(1, 0, 0, 1, 0, 0)" xlink:href="#åçûìßííûé_ãðàäèåíò_21"/><linearGradient id="åçûìßííûé_ãðàäèåíò_21-8" x1="52.53" y1="24.63" x2="128.04" y2="24.63" gradientTransform="matrix(1, 0, 0, 1, 0, 0)" xlink:href="#åçûìßííûé_ãðàäèåíò_21"/></defs><title>banner-bg</title><rect x="5.99" y="25.08" width="959" height="51" style="fill:#b02a37"/><path d="M959,1V51H1V1H959m1-1H0V52H960V0Z" transform="translate(5.49 24.58)"/><path d="M483.13,24.64a4.11,4.11,0,0,0,.43,1.84,3.92,3.92,0,0,0,1.8,3.19A4,4,0,0,0,486.7,31a4.11,4.11,0,0,0,1.81.55,4.08,4.08,0,0,0,1.83.47,4,4,0,0,0,1.83-.43,4.06,4.06,0,0,0,1.82-.5,4.25,4.25,0,0,0,1.38-1.29,4.15,4.15,0,0,0,1.32-1.35,4,4,0,0,0,.55-1.81,3.95,3.95,0,0,0,0-3.66,4.23,4.23,0,0,0-.5-1.82,4.18,4.18,0,0,0-1.3-1.38,4.12,4.12,0,0,0-1.34-1.32,4,4,0,0,0-1.81-.54,4,4,0,0,0-1.83-.48,4.2,4.2,0,0,0-1.83.43,4,4,0,0,0-3.2,1.8,3.94,3.94,0,0,0-1.87,3.15A4.08,4.08,0,0,0,483.13,24.64Zm5.4.06a1.8,1.8,0,0,1-.19.55,1.83,1.83,0,0,1,.43.4,1.81,1.81,0,0,1,.12.57,1.89,1.89,0,0,1,.57.13,1.61,1.61,0,0,1,.38.44,1.93,1.93,0,0,1,.56-.18,1.8,1.8,0,0,1,.55.19,1.64,1.64,0,0,1,.4-.43,1.56,1.56,0,0,1,.57-.11,1.53,1.53,0,0,1,.13-.57,1.84,1.84,0,0,1,.44-.39,1.84,1.84,0,0,1-.18-.56,1.89,1.89,0,0,1,.19-.55,1.64,1.64,0,0,1-.43-.4,1.75,1.75,0,0,1-.12-.57,1.53,1.53,0,0,1-.56-.13,1.59,1.59,0,0,1-.39-.43,1.65,1.65,0,0,1-.56.17,1.57,1.57,0,0,1-.55-.19,1.5,1.5,0,0,1-.4.43,1.81,1.81,0,0,1-.57.12,1.58,1.58,0,0,1-.13.57,1.61,1.61,0,0,1-.44.38A1.93,1.93,0,0,1,488.53,24.7ZM486,25.86l-.11-.09a1.51,1.51,0,0,1-.42-1.11,1.47,1.47,0,0,1,.45-1.09l.1-.09,0-.13a1.62,1.62,0,0,1,1.13-1.9l.13,0,0-.14a1.43,1.43,0,0,1,.75-.91,1.46,1.46,0,0,1,1.17-.17l.13.05.09-.1a1.45,1.45,0,0,1,1.11-.42,1.49,1.49,0,0,1,1.1.44.76.76,0,0,1,.08.11l.13-.05a1.49,1.49,0,0,1,1.17.19,1.47,1.47,0,0,1,.73.94.59.59,0,0,1,0,.13l.14,0a1.48,1.48,0,0,1,.92.75,1.5,1.5,0,0,1,.16,1.17.5.5,0,0,1-.05.13l.11.09a1.53,1.53,0,0,1,.42,1.11,1.5,1.5,0,0,1-.45,1.1l-.1.09s0,.08,0,.13A1.62,1.62,0,0,1,493.77,28l-.13,0,0,.13a1.45,1.45,0,0,1-.75.92,1.42,1.42,0,0,1-1.17.16l-.13,0-.09.1a1.49,1.49,0,0,1-1.11.42,1.43,1.43,0,0,1-1.09-.45.41.41,0,0,1-.09-.1l-.13,0a1.63,1.63,0,0,1-1.9-1.12.68.68,0,0,1,0-.14l-.14,0a1.47,1.47,0,0,1-.92-.74,1.53,1.53,0,0,1-.16-1.18S485.94,25.9,486,25.86Z" transform="translate(5.49 24.58)" style="fill:#bf2e37"/><path d="M480.88,27.16c-.11-.85-.2-1.7-.28-2.55.1-.85.21-1.7.34-2.55.33-.79.67-1.57,1-2.34s1-1.37,1.56-2c.68-.52,1.37-1,2.07-1.52.78-.34,1.57-.67,2.37-1q1.27-.16,2.55-.27,1.28.13,2.55.33c.79.33,1.57.67,2.35,1s1.37,1,2,1.56,1,1.37,1.52,2.07c.34.79.67,1.58,1,2.37.11.85.2,1.7.28,2.56-.1.85-.21,1.7-.34,2.54-.33.79-.67,1.57-1,2.35s-1,1.37-1.56,2c-.68.51-1.37,1-2.07,1.51-.78.34-1.57.67-2.37,1-.85.11-1.7.2-2.55.28-.85-.1-1.7-.21-2.55-.34-.79-.32-1.57-.67-2.35-1-.69-.51-1.37-1-2-1.57s-1-1.37-1.52-2.07S481.19,28,480.88,27.16Zm-27.71,7.08q-2.81-.89-5.56-1.85a11.68,11.68,0,0,1,7.25-5.33,66.08,66.08,0,0,0,10,4.21,65,65,0,0,0-6.72,8.46,11.65,11.65,0,0,1-8.92-1.19Q451.15,36.37,453.17,34.24Zm.23-19.9c-1.32-1.44-2.62-2.91-3.89-4.38a11.71,11.71,0,0,1,8.95-1A64.8,64.8,0,0,0,465,17.59a65,65,0,0,0-10.05,4,11.67,11.67,0,0,1-7.13-5.49Q450.57,15.17,453.4,14.34ZM463.55-2.78q-.63-2.87-1.18-5.74a11.63,11.63,0,0,1,8.24,3.62A65.73,65.73,0,0,0,472,5.82a64.42,64.42,0,0,0-10.69-1.58,11.68,11.68,0,0,1-3.42-8.32C459.74-3.68,461.65-3.24,463.55-2.78Zm17.35-9.75c.59-1.86,1.21-3.72,1.85-5.56a11.68,11.68,0,0,1,5.33,7.25,65,65,0,0,0-4.2,10,65.94,65.94,0,0,0-8.47-6.72,11.69,11.69,0,0,1,1.2-8.92Q478.77-14.56,480.9-12.53Zm19.9.23c1.44-1.32,2.91-2.62,4.38-3.89a11.67,11.67,0,0,1,1,9,64.8,64.8,0,0,0-8.62,6.52,65,65,0,0,0-4-10,11.65,11.65,0,0,1,5.5-7.13C499.67-16,500.25-14.18,500.8-12.3ZM517.92-2.15c1.91-.42,3.83-.81,5.74-1.18A11.67,11.67,0,0,1,520,4.92a65.71,65.71,0,0,0-10.72,1.33A64.42,64.42,0,0,0,510.9-4.44a11.7,11.7,0,0,1,8.33-3.42C518.82-6,518.39-4,517.92-2.15Zm9.75,17.35q2.8.89,5.56,1.85A11.68,11.68,0,0,1,526,22.38a65,65,0,0,0-10-4.2,65.08,65.08,0,0,0,6.72-8.47,11.69,11.69,0,0,1,8.92,1.2C530.35,12.35,529,13.79,527.67,15.2Zm-.23,19.9c1.32,1.44,2.62,2.91,3.89,4.38a11.62,11.62,0,0,1-9,1,65.45,65.45,0,0,0-6.52-8.62,64,64,0,0,0,10-4,11.68,11.68,0,0,1,7.13,5.5Q530.27,34.28,527.44,35.1ZM517.29,52.22c.42,1.91.81,3.83,1.18,5.74a11.68,11.68,0,0,1-8.24-3.61,65.71,65.71,0,0,0-1.34-10.73,64.42,64.42,0,0,0,10.69,1.58A11.66,11.66,0,0,1,523,53.53C521.1,53.12,519.19,52.69,517.29,52.22ZM499.94,62q-.88,2.81-1.85,5.56a11.68,11.68,0,0,1-5.33-7.25,65,65,0,0,0,4.2-10A65.08,65.08,0,0,0,505.43,57a11.69,11.69,0,0,1-1.2,8.92Q502.07,64,499.94,62ZM480,61.74c-1.44,1.32-2.91,2.62-4.38,3.89a11.65,11.65,0,0,1-1-8.94,65.74,65.74,0,0,0,8.62-6.53,65.52,65.52,0,0,0,4,10.06,11.65,11.65,0,0,1-5.5,7.12C481.17,65.49,480.59,63.62,480,61.74ZM462.92,51.59c-1.91.43-3.83.82-5.74,1.18a11.67,11.67,0,0,1,3.62-8.24,65.73,65.73,0,0,0,10.72-1.34,64.42,64.42,0,0,0-1.58,10.69,11.66,11.66,0,0,1-8.33,3.42C462,55.4,462.46,53.49,462.92,51.59ZM445.53,36.2c.27-.61.55-1.2.86-1.77l2.58.89c-.62.67-1.23,1.34-1.84,2C446.59,37,446.06,36.6,445.53,36.2Zm.28-24q.79-.59,1.62-1.11c.6.69,1.19,1.38,1.79,2.06l-2.6.83C446.33,13.42,446.06,12.82,445.81,12.22ZM458-8.42c.65-.06,1.31-.11,2-.14.17.9.34,1.79.52,2.68l-2.67-.58C457.89-7.11,458-7.76,458-8.42Zm20.9-11.75c.61.27,1.2.56,1.77.86l-.89,2.58-2-1.84C478.16-19.11,478.55-19.64,478.94-20.17Zm24,.28c.38.53.75,1.08,1.1,1.63-.69.59-1.38,1.18-2.06,1.79-.27-.87-.55-1.74-.83-2.6C501.72-19.36,502.32-19.64,502.93-19.89ZM523.56-7.66c.07.66.11,1.31.14,2L521-5.18c.2-.89.39-1.78.58-2.67C522.25-7.81,522.9-7.74,523.56-7.66Zm11.75,20.91c-.27.6-.55,1.19-.86,1.76l-2.58-.88c.62-.67,1.23-1.35,1.84-2C534.25,12.47,534.79,12.85,535.31,13.25Zm-.28,24c-.53.39-1.07.76-1.62,1.1-.6-.69-1.19-1.38-1.79-2.06l2.6-.83C534.51,36,534.78,36.62,535,37.23ZM522.8,57.86c-.65.07-1.31.12-2,.14-.16-.89-.34-1.78-.52-2.68.89.2,1.78.4,2.67.58C523,56.55,522.89,57.21,522.8,57.86ZM501.9,69.61c-.61-.27-1.2-.55-1.77-.86.3-.85.6-1.71.89-2.58L503,68C502.68,68.55,502.3,69.09,501.9,69.61Zm-24-.27c-.38-.54-.75-1.08-1.1-1.63l2.06-1.79c.27.87.55,1.73.83,2.6C479.12,68.81,478.52,69.08,477.91,69.34ZM457.28,57.1c-.07-.65-.11-1.31-.14-2,.89-.16,1.79-.34,2.68-.52-.2.89-.39,1.78-.58,2.67C458.59,57.25,457.94,57.19,457.28,57.1ZM475.9,24.55q.14,1.9.39,3.78c.45,1.19.94,2.35,1.47,3.51.71,1.05,1.45,2.08,2.23,3.08,1,.79,2,1.56,3,2.3,1.15.55,2.3,1.07,3.47,1.55,1.25.2,2.51.35,3.77.48,1.27-.1,2.53-.23,3.78-.4q1.77-.68,3.51-1.47c1-.71,2.07-1.45,3.07-2.23.8-1,1.57-2,2.3-3,.56-1.14,1.07-2.3,1.55-3.47.2-1.25.36-2.51.48-3.77q-.13-1.91-.39-3.78-.68-1.77-1.47-3.51c-.71-1.05-1.45-2.07-2.23-3.07-1-.8-2-1.57-3-2.3-1.15-.56-2.3-1.07-3.47-1.55-1.25-.2-2.51-.36-3.77-.48q-1.9.13-3.78.39-1.77.67-3.51,1.47c-1.05.71-2.07,1.46-3.07,2.23-.8,1-1.57,2-2.3,3-.56,1.15-1.07,2.3-1.55,3.47C476.18,22,476,23.29,475.9,24.55ZM473.83,29a57.77,57.77,0,0,1-14.27-4.59,57.42,57.42,0,0,1,14.37-4.27A57.44,57.44,0,0,1,463.88,9a57.32,57.32,0,0,1,14.57,3.49A57.6,57.6,0,0,1,475.3-2.18,58,58,0,0,1,486.18,8.13a57.17,57.17,0,0,1,4.6-14.26A57.57,57.57,0,0,1,495,8.24,57.23,57.23,0,0,1,506.16-1.82a57.82,57.82,0,0,1-3.49,14.58A57.45,57.45,0,0,1,517.32,9.6,57.36,57.36,0,0,1,507,20.48a57.79,57.79,0,0,1,14.27,4.6,57.41,57.41,0,0,1-14.37,4.26A57.5,57.5,0,0,1,517,40.46,57.32,57.32,0,0,1,502.39,37a57.43,57.43,0,0,1,3.15,14.65,57.34,57.34,0,0,1-10.88-10.31,57.25,57.25,0,0,1-4.6,14.27,57.7,57.7,0,0,1-4.26-14.37,57.88,57.88,0,0,1-11.12,10.06,57.72,57.72,0,0,1,3.49-14.58,57.43,57.43,0,0,1-14.65,3.15A57.66,57.66,0,0,1,473.83,29ZM448,24.23a55.63,55.63,0,0,0-6.85,13.1,55.9,55.9,0,0,0,12.29,8.19A56.23,56.23,0,0,0,454,60.29a56.18,56.18,0,0,0,14.75,1,56.06,56.06,0,0,0,7.91,12.48,56,56,0,0,0,13.25-6.55A55.79,55.79,0,0,0,503,74a55.66,55.66,0,0,0,8.2-12.3A56.23,56.23,0,0,0,526,61.12a56.18,56.18,0,0,0,1-14.75,56.29,56.29,0,0,0,12.48-7.91,56,56,0,0,0-6.55-13.25,55.76,55.76,0,0,0,6.85-13.09,55.94,55.94,0,0,0-12.29-8.2,56.25,56.25,0,0,0-.61-14.77,56.18,56.18,0,0,0-14.75-1,56.29,56.29,0,0,0-7.91-12.48,56,56,0,0,0-13.25,6.55,56.14,56.14,0,0,0-13.09-6.85,55.59,55.59,0,0,0-8.2,12.29,56.23,56.23,0,0,0-14.77.61,56.18,56.18,0,0,0-1,14.75A56,56,0,0,0,441.42,11,55.75,55.75,0,0,0,448,24.23Z" transform="translate(5.49 24.58)" style="fill:url(#åçûìßííûé_ãðàäèåíò_21)"/><rect y="111.3" width="27.28" height="27.28" rx="2.87" style="fill:#bf2e37"/><rect x="81.84" y="111.3" width="27.28" height="27.28" rx="2.87" style="fill:#218283"/><rect x="27.28" y="111.3" width="27.28" height="27.28" rx="2.87" style="fill:#eb6a48"/><rect x="54.56" y="111.3" width="27.28" height="27.28" rx="2.87" style="fill:#f0b04c"/><path d="M861.29,31.29A47,47,0,0,0,856.85,26a.51.51,0,0,0-.13-.09.43.43,0,0,0-.81.12q-.31,3.48-.43,7c1.32,1.93,2.68,3.82,4.1,5.68a.43.43,0,0,0,.75-.33.47.47,0,0,0,.06-.15A45.8,45.8,0,0,0,861.29,31.29Zm1.63-14.63a46.83,46.83,0,0,0,.62-6.91.41.41,0,0,0,0-.16.43.43,0,0,0-.66-.49c-1.78,1.5-3.53,3.05-5.23,4.64-.44,2.29-.81,4.6-1.12,6.91a.43.43,0,0,0,.76.3.41.41,0,0,0,.15-.07A46.19,46.19,0,0,0,862.92,16.66Zm11.49-9.2A46.88,46.88,0,0,0,879.73,3a.38.38,0,0,0,.1-.13.43.43,0,0,0-.12-.81q-3.5-.31-7-.43c-1.92,1.31-3.82,2.68-5.67,4.1a.43.43,0,0,0,.33.75.52.52,0,0,0,.15.06A45.63,45.63,0,0,0,874.41,7.46ZM889,9.09a46.81,46.81,0,0,0,6.9.62.38.38,0,0,0,.16,0c.36.13.79-.3.49-.66-1.5-1.78-3-3.53-4.64-5.24q-3.44-.64-6.9-1.11a.43.43,0,0,0-.3.76.47.47,0,0,0,.06.15A48.2,48.2,0,0,0,889,9.09Zm9.19,11.49a47,47,0,0,0,4.45,5.32l.13.1a.43.43,0,0,0,.81-.12c.2-2.33.35-4.66.42-7-1.31-1.92-2.68-3.82-4.09-5.67a.43.43,0,0,0-.75.33.34.34,0,0,0-.06.15A47,47,0,0,0,898.23,20.58ZM896.61,35.2a47.07,47.07,0,0,0-.62,6.91.41.41,0,0,0,0,.16c-.13.36.3.79.66.49q2.69-2.25,5.24-4.64c.43-2.29.81-4.59,1.12-6.91.06-.46-.54-.59-.77-.29a.47.47,0,0,0-.15.06A48,48,0,0,0,896.61,35.2Zm-11.49,9.2a48.06,48.06,0,0,0-5.33,4.44.55.55,0,0,0-.09.14.43.43,0,0,0,.12.81c2.33.2,4.65.34,7,.42,1.93-1.31,3.82-2.68,5.68-4.09a.43.43,0,0,0-.33-.75.47.47,0,0,0-.15-.06A47.14,47.14,0,0,0,885.12,44.4Zm-14.63-1.62a48.23,48.23,0,0,0-6.91-.63.76.76,0,0,0-.16,0,.43.43,0,0,0-.49.66c1.51,1.79,3.05,3.54,4.64,5.24,2.29.43,4.6.81,6.91,1.12a.43.43,0,0,0,.3-.77.34.34,0,0,0-.07-.15A46.9,46.9,0,0,0,870.49,42.78ZM857,32.52c.05-1.37.11-2.73.2-4.1.94,1,1.83,2.14,2.68,3.27-.11,1.4-.28,2.8-.52,4.19C858.6,34.77,857.81,33.65,857,32.52Zm2-18c1-.93,2-1.85,3-2.75q-.12,2.12-.42,4.2c-1.07.91-2.18,1.78-3.33,2.6C858.55,17.22,858.78,15.87,859,14.52ZM873.17,3.21c1.37,0,2.74.11,4.1.2-1,.94-2.14,1.83-3.26,2.68-1.4-.12-2.8-.28-4.19-.52C870.92,4.77,872,4,873.17,3.21Zm18,2c.94,1,1.86,2,2.76,3q-2.11-.12-4.2-.42c-.92-1.07-1.79-2.18-2.6-3.33C888.48,4.72,889.83,5,891.17,5.21Zm11.32,14.13c0,1.37-.12,2.74-.2,4.1-.95-1.05-1.84-2.14-2.68-3.26.11-1.41.28-2.8.51-4.19C900.93,17.09,901.72,18.21,902.49,19.34Zm-2,18c-1,.94-2,1.85-3,2.76.07-1.41.22-2.81.41-4.21,1.08-.91,2.18-1.78,3.33-2.59C901,34.65,900.75,36,900.49,37.34ZM886.35,48.65c-1.36,0-2.73-.11-4.1-.19,1-1,2.14-1.84,3.27-2.69,1.4.12,2.8.29,4.19.52C888.6,47.1,887.48,47.88,886.35,48.65Zm-18-2c-.94-1-1.86-2-2.76-3,1.41.07,2.81.22,4.2.41.91,1.08,1.78,2.18,2.6,3.33C871.05,47.15,869.7,46.91,868.36,46.66Z" transform="translate(5.49 24.58)" style="fill:url(#åçûìßííûé_ãðàäèåíò_21-2)"/><path d="M856.67,23.37a.44.44,0,0,0,.17.39,35.47,35.47,0,0,1,6.39,7,35.74,35.74,0,0,1-1.67,9.3.42.42,0,0,0,.07.42.43.43,0,0,0,.39.16,35.06,35.06,0,0,1,9.44.4,35.06,35.06,0,0,1,5.4,7.77.42.42,0,0,0,.34.24.44.44,0,0,0,.39-.16,35.52,35.52,0,0,1,7-6.4,35.27,35.27,0,0,1,9.3,1.68.44.44,0,0,0,.42-.07.46.46,0,0,0,.16-.39,35.15,35.15,0,0,1,.4-9.45,35.36,35.36,0,0,1,7.77-5.39.45.45,0,0,0,.24-.35.42.42,0,0,0-.16-.39,35.49,35.49,0,0,1-6.4-7A35.41,35.41,0,0,1,898,11.83a.43.43,0,0,0-.07-.41.43.43,0,0,0-.39-.16,36,36,0,0,1-9.45-.4,35.83,35.83,0,0,1-5.39-7.77.46.46,0,0,0-.35-.25.43.43,0,0,0-.38.17,35.47,35.47,0,0,1-7,6.39,35.81,35.81,0,0,1-9.31-1.67.4.4,0,0,0-.41.07.41.41,0,0,0-.16.39,35.49,35.49,0,0,1-.4,9.44,35.53,35.53,0,0,1-7.77,5.4A.43.43,0,0,0,856.67,23.37Zm10,1.11a2.71,2.71,0,0,1-2.34,2.27,3.29,3.29,0,0,1-2.46-.86c-.92-.72-1.66-1.6-2.62-2.24,1.07-.41,2-1.1,3-1.61a3.3,3.3,0,0,1,2.59-.29A2.7,2.7,0,0,1,866.63,24.48Zm4.88-8.86a2.72,2.72,0,0,1-3.26,0,3.27,3.27,0,0,1-1.14-2.35c-.13-1.16-.05-2.3-.27-3.44,1,.47,2.19.64,3.29,1a3.26,3.26,0,0,1,2,1.62A2.71,2.71,0,0,1,871.51,15.62Zm9.71-2.82A2.69,2.69,0,0,1,879,10.46,3.28,3.28,0,0,1,879.8,8c.73-.92,1.6-1.67,2.24-2.62.42,1.07,1.11,2,1.61,3A3.27,3.27,0,0,1,884,11,2.7,2.7,0,0,1,881.22,12.8Zm8.86,4.88a2.7,2.7,0,0,1,0-3.26,3.25,3.25,0,0,1,2.34-1.14c1.17-.14,2.31,0,3.44-.27-.47,1.05-.63,2.19-1,3.29a3.26,3.26,0,0,1-1.62,2A2.69,2.69,0,0,1,890.08,17.68Zm2.82,9.71a2.68,2.68,0,0,1,2.34-2.27,3.29,3.29,0,0,1,2.46.85c.91.73,1.66,1.6,2.62,2.24-1.08.42-2,1.1-3.05,1.61a3.27,3.27,0,0,1-2.59.3A2.7,2.7,0,0,1,892.9,27.39ZM888,36.25a2.69,2.69,0,0,1,3.26,0,3.29,3.29,0,0,1,1.14,2.34c.13,1.16,0,2.31.27,3.44-1.06-.47-2.19-.63-3.3-1a3.28,3.28,0,0,1-2-1.62A2.71,2.71,0,0,1,888,36.25Zm-9.71,2.82a2.69,2.69,0,0,1,2.27,2.33,3.27,3.27,0,0,1-.86,2.47c-.72.91-1.6,1.66-2.24,2.62-.41-1.08-1.1-2-1.61-3.05a3.31,3.31,0,0,1-.29-2.59A2.69,2.69,0,0,1,878.31,39.07Zm-8.86-4.88a2.7,2.7,0,0,1-.05,3.26,3.29,3.29,0,0,1-2.35,1.14c-1.16.13-2.3,0-3.43.27.46-1.06.63-2.19,1-3.3a3.3,3.3,0,0,1,1.63-2A2.7,2.7,0,0,1,869.45,34.19Zm1.25-9.26a6.34,6.34,0,0,1-1.76,4.14,6.36,6.36,0,0,1,3.7,2.56,6.3,6.3,0,0,1,1.69,4.18,7.83,7.83,0,0,1,8.57.95,6.41,6.41,0,0,1,2.56-3.71,6.36,6.36,0,0,1,4.18-1.68,6.32,6.32,0,0,1-.81-4.43,6.36,6.36,0,0,1,1.76-4.15,6.32,6.32,0,0,1-3.71-2.56,6.33,6.33,0,0,1-1.68-4.17,7.85,7.85,0,0,1-8.58-.95,6.27,6.27,0,0,1-2.56,3.7,6.3,6.3,0,0,1-4.17,1.69A6.36,6.36,0,0,1,870.7,24.93Zm-4.73,5c-1.26-.28-2.2-1.4-3.1-2.48l.45.11a3.58,3.58,0,0,0,4.16-3,3.58,3.58,0,0,0-3.4-3.83,3.65,3.65,0,0,0-.47,0c1.12-.85,2.28-1.74,3.58-1.74-.7-1.09-.57-2.55-.45-4a3.45,3.45,0,0,0,.25.41,3.56,3.56,0,0,0,5,.82,3.58,3.58,0,0,0,.31-5.11,3.49,3.49,0,0,0-.35-.32c1.4.18,2.85.38,3.76,1.29.28-1.26,1.41-2.2,2.49-3.11a3.45,3.45,0,0,0-.12.46,3.45,3.45,0,1,0,6.81.29c.86,1.12,1.75,2.28,1.75,3.58,1.09-.7,2.55-.57,3.95-.45a3.26,3.26,0,0,0-.4.24,3.59,3.59,0,0,0-.83,5.06,3.58,3.58,0,0,0,5.12.3,3.47,3.47,0,0,0,.32-.34c-.19,1.4-.38,2.85-1.3,3.76,1.26.28,2.2,1.41,3.11,2.49a3.45,3.45,0,0,0-.46-.12,3.45,3.45,0,1,0-.75,6.83,3.7,3.7,0,0,0,.47,0c-1.12.86-2.29,1.75-3.58,1.74.7,1.1.57,2.55.44,4a4.36,4.36,0,0,0-.24-.41,3.44,3.44,0,1,0-5,4.62c-1.4-.19-2.86-.38-3.77-1.3-.28,1.26-1.4,2.2-2.48,3.11a3.43,3.43,0,0,0,.11-.46,3.45,3.45,0,1,0-6.82-.75,3.69,3.69,0,0,0,0,.47c-.85-1.12-1.74-2.29-1.74-3.58-1.09.7-2.55.56-4,.44a3.38,3.38,0,0,0,.41-.24A3.45,3.45,0,1,0,865,33.35c-.12.11-.22.23-.32.34C864.87,32.3,865.06,30.84,866,29.93Zm4.41-1.28A8.36,8.36,0,0,0,871.55,25a8.65,8.65,0,0,0-.34-3.8,8.44,8.44,0,0,0,3.39-1.74A8.44,8.44,0,0,0,877,16.55a9.63,9.63,0,0,0,7.43.82,8.57,8.57,0,0,0,1.75,3.4,8.27,8.27,0,0,0,2.93,2.44A8.4,8.4,0,0,0,888,26.84a8.5,8.5,0,0,0,.34,3.8,9.69,9.69,0,0,0-5.84,4.67,9.63,9.63,0,0,0-7.43-.82,8.38,8.38,0,0,0-1.74-3.39A8.58,8.58,0,0,0,870.38,28.65Zm4.78-3.23a10.46,10.46,0,0,1-.41,2,10.57,10.57,0,0,1,1.4,1.44,11.21,11.21,0,0,1,1.1,1.67,11.11,11.11,0,0,1,2,0,12.32,12.32,0,0,1,2,.41,10.81,10.81,0,0,1,3.11-2.49,10.36,10.36,0,0,1,0-2,11.37,11.37,0,0,1,.4-2A11.1,11.1,0,0,1,883.38,23a11.31,11.31,0,0,1-1.1-1.68,11.22,11.22,0,0,1-2,0,10.53,10.53,0,0,1-2-.41,11.2,11.2,0,0,1-1.44,1.4,11.31,11.31,0,0,1-1.68,1.1A11.11,11.11,0,0,1,875.16,25.42Zm3.76.42c0,.12,0,.23,0,.35l.23.27c.07.1.15.19.22.28l.35,0,.35,0,.28-.22.27-.22c0-.12,0-.24,0-.35s0-.24,0-.36l-.22-.27c-.08-.09-.15-.19-.22-.28l-.35,0-.35-.05-.28.23-.28.22Zm-3.2,1.27a13,13,0,0,0,.29-1.59,10.87,10.87,0,0,0,.06-1.62A11.6,11.6,0,0,0,877.4,23a12.19,12.19,0,0,0,1.19-1.09,12.66,12.66,0,0,0,1.59.29,10.79,10.79,0,0,0,1.61.06,11.6,11.6,0,0,0,.92,1.33,12.31,12.31,0,0,0,1.1,1.19,11.08,11.08,0,0,0-.29,1.59,12.32,12.32,0,0,0-.07,1.61,12.54,12.54,0,0,0-1.33.92,11.07,11.07,0,0,0-1.18,1.1,11.33,11.33,0,0,0-1.59-.29,12.39,12.39,0,0,0-1.62-.07,11.22,11.22,0,0,0-.92-1.33A12.09,12.09,0,0,0,875.72,27.11Z" transform="translate(5.49 24.58)" style="fill:url(#åçûìßííûé_ãðàäèåíò_21-3)"/><path d="M838.46,21.35a.4.4,0,0,0,.16.39c3.84,2.9,4.76,8.5,5.33,13l.18,1.56c.23.46.46.94.68,1.41,1.91,4.08,4.13,9.3,2.44,13.8a.41.41,0,0,0,.07.42.4.4,0,0,0,.39.16c4.76-.66,9.37,2.65,12.93,5.4.42.32.83.65,1.23,1l1.48.52c4.24,1.53,9.5,3.65,11.49,8a.4.4,0,0,0,.34.24.4.4,0,0,0,.39-.16c2.9-3.83,8.5-4.75,13-5.32q.78-.11,1.56-.18l1.41-.68c4.08-1.91,9.3-4.13,13.8-2.44a.39.39,0,0,0,.42-.08.39.39,0,0,0,.16-.38c-.66-4.77,2.65-9.38,5.41-12.94l1-1.23c.17-.49.34-1,.52-1.48,1.53-4.23,3.65-9.49,8-11.48a.45.45,0,0,0,.08-.74c-3.83-2.9-4.75-8.5-5.32-13q-.11-.78-.18-1.56c-.23-.47-.46-.94-.68-1.41-1.91-4.08-4.13-9.3-2.44-13.81a.39.39,0,0,0-.07-.41.39.39,0,0,0-.39-.16c-4.77.66-9.38-2.65-12.94-5.41l-1.22-1c-.5-.16-1-.33-1.49-.51-4.23-1.53-9.49-3.66-11.48-8a.41.41,0,0,0-.35-.24.38.38,0,0,0-.38.16c-2.91,3.84-8.51,4.76-13,5.33l-1.56.17q-.7.36-1.41.69c-4.08,1.91-9.3,4.12-13.81,2.44a.39.39,0,0,0-.41.07.38.38,0,0,0-.16.39c.66,4.76-2.65,9.37-5.41,12.93-.32.42-.64.82-1,1.23-.17.5-.34,1-.52,1.48-1.53,4.23-3.66,9.5-8,11.49A.39.39,0,0,0,838.46,21.35Zm6.13.68A2.05,2.05,0,0,1,843,23.89a1.7,1.7,0,0,1-1.49-.69l0,0a19.82,19.82,0,0,0-1.45-1.58l-.07-.06h0l.08,0a18.58,18.58,0,0,0,1.76-1.23l0,0a1.69,1.69,0,0,1,1.61-.34A2,2,0,0,1,844.59,22ZM857.65-1.7a2,2,0,0,1-2.41.22A1.7,1.7,0,0,1,854.67-3v-.06a19.27,19.27,0,0,0,.1-2.14s0-.06,0-.09h0l.09,0a20.45,20.45,0,0,0,2.1.37H857a1.71,1.71,0,0,1,1.38.9A2,2,0,0,1,857.65-1.7Zm26-7.54a2,2,0,0,1-1.85-1.55,1.72,1.72,0,0,1,.68-1.5l0,0a16.79,16.79,0,0,0,1.59-1.44l0-.07h0a.56.56,0,0,0,.05.08A18.47,18.47,0,0,0,885.44-12l0,.05a1.74,1.74,0,0,1,.34,1.61A2.06,2.06,0,0,1,883.66-9.24ZM907.4,3.82a2,2,0,0,1-.23-2.41,1.73,1.73,0,0,1,1.55-.57h0a19.38,19.38,0,0,0,2.14.1H911A.29.29,0,0,1,911,1a18.07,18.07,0,0,0-.38,2.1v.06a1.68,1.68,0,0,1-.9,1.38A2,2,0,0,1,907.4,3.82Zm7.54,26A2,2,0,0,1,916.49,28a1.69,1.69,0,0,1,1.49.68l0,0a18.27,18.27,0,0,0,1.44,1.58l.07.06h0l-.08,0a20.48,20.48,0,0,0-1.75,1.23l-.05,0A1.69,1.69,0,0,1,916,32,2,2,0,0,1,914.94,29.83ZM901.88,53.56a2,2,0,0,1,2.4-.22,1.71,1.71,0,0,1,.58,1.55v0a17.21,17.21,0,0,0-.1,2.14.28.28,0,0,0,0,.09h0l-.09,0a17.87,17.87,0,0,0-2.11-.38h-.06a1.68,1.68,0,0,1-1.37-.9A2,2,0,0,1,901.88,53.56Zm-26,7.55a2,2,0,0,1,1.86,1.54,1.72,1.72,0,0,1-.68,1.5l0,0c-.53.49-1.11.91-1.58,1.44l-.06.07h0a.59.59,0,0,0,0-.08,18.46,18.46,0,0,0-1.23-1.75l0,0a1.69,1.69,0,0,1-.34-1.61A2.05,2.05,0,0,1,875.86,61.11ZM852.13,48.05a2,2,0,0,1,.22,2.4,1.68,1.68,0,0,1-1.54.58h-.06a17.12,17.12,0,0,0-2.14-.1h-.09l0-.09a16.32,16.32,0,0,0,.37-2.11v-.06a1.73,1.73,0,0,1,.9-1.37A2,2,0,0,1,852.13,48.05Zm1.15-14.44c.11-3.51.35-7,.73-10.53s.93-7,1.59-10.45c2.56-2.4,5.22-4.72,8-6.93s5.6-4.28,8.51-6.26c3.52.12,7,.36,10.54.74s7,.93,10.44,1.59q3.62,3.84,6.93,8t6.26,8.51c-.11,3.51-.35,7-.74,10.54s-.92,7-1.59,10.44q-3.84,3.62-8,6.93c-2.75,2.2-5.6,4.29-8.51,6.26-3.51-.11-7-.35-10.53-.74s-7-.93-10.44-1.59c-2.41-2.56-4.73-5.22-6.93-8S855.25,36.52,853.28,33.61Zm-4.76-5c.09-1.89,2.46-1.82,4-1.71l-.12,1.48c-.82-.23-2.5-.86-2.75.25v.15a.65.65,0,0,0,.11.29.77.77,0,0,0,.58.31,7.07,7.07,0,0,0,2-.12l-.09,1.49C850.7,30.63,848.43,30.4,848.52,28.57Zm11,21.32c-1.26-1.4.46-3,1.59-4l1,1.13c-.75.42-2.39,1.16-1.77,2.12l0,0c-.06,0,0,0,0,.05a.67.67,0,0,0,.28.14.81.81,0,0,0,.64-.2,7,7,0,0,0,1.32-1.5l1,1.12C862.54,49.8,860.77,51.25,859.53,49.89Zm22.87,7.29c-1.88-.1-1.82-2.46-1.71-4l1.49.11c-.24.83-.87,2.51.24,2.76h.15a1,1,0,0,0,.29-.11.83.83,0,0,0,.32-.59,7.51,7.51,0,0,0-.13-2c.5,0,1,.07,1.49.09C884.46,55,884.24,57.27,882.4,57.18Zm21.32-11c-1.4,1.27-3-.45-4-1.58l1.13-1c.42.75,1.16,2.38,2.12,1.77l0-.05c0,.06,0,0,.06,0a1,1,0,0,0,.13-.28.83.83,0,0,0-.19-.64A7.1,7.1,0,0,0,901.51,43c.38-.33.75-.65,1.12-1C903.63,43.16,905.08,44.93,903.72,46.16ZM911,23.3c-.09,1.88-2.46,1.82-4,1.71,0-.5.08-1,.11-1.49.83.24,2.51.87,2.76-.25,0-.13,0-.15,0-.07v-.07a.68.68,0,0,0-.11-.29.83.83,0,0,0-.58-.32,7.17,7.17,0,0,0-2,.13c0-.5.07-1,.09-1.49C908.82,21.23,911.1,21.46,911,23.3ZM900,2c1.26,1.39-.46,3-1.59,4l-1-1.14c.75-.41,2.38-1.16,1.77-2.12l-.05-.05c.06.05,0,0,0,0a.7.7,0,0,0-.92.06,7.33,7.33,0,0,0-1.33,1.5l-1-1.11C897,2.06,898.76.61,900,2ZM877.13-5.31c1.88.09,1.82,2.46,1.71,3.95l-1.49-.12c.24-.82.87-2.5-.25-2.75H877a.72.72,0,0,0-.29.1.85.85,0,0,0-.32.59,7.07,7.07,0,0,0,.13,2L875-1.63C875.06-3.13,875.29-5.4,877.13-5.31Zm-21.32,11c1.39-1.26,3,.45,4,1.59-.38.32-.76.64-1.13,1-.42-.75-1.16-2.39-2.13-1.77l0,0,0,0a.66.66,0,0,0-.13.28.8.8,0,0,0,.19.64A7.56,7.56,0,0,0,858,8.83l-1.11,1C855.89,8.71,854.44,6.94,855.81,5.7Zm-1.89,9.54-.24,1.47a6.92,6.92,0,0,0-1.92-.56.8.8,0,0,0-.65.18.63.63,0,0,0-.16.26c0,.12,0,.14,0,.07s0-.06,0,.07c0,1.14,1.77.89,2.63.84-.08.49-.15,1-.22,1.48-1.47-.22-3.8-.68-3.48-2.53S852.44,15,853.92,15.24Zm0,21.4c.28.41.57.81.87,1.21a7.18,7.18,0,0,0-1.76,1,.81.81,0,0,0-.33.58.82.82,0,0,0,.07.3c.06.11.08.13,0,.06l0,.06c.8.81,1.88-.62,2.45-1.26l.9,1.19c-1.2.89-3.17,2.21-4.25.67S852.7,37.51,853.93,36.64Zm15.14,15.14,1.47.23a7,7,0,0,0-.56,1.93.78.78,0,0,0,.18.64.65.65,0,0,0,.26.17c.12,0,.14,0,.07,0l.07,0c1.14,0,.89-1.78.84-2.63l1.48.21c-.22,1.48-.68,3.8-2.53,3.48S868.81,53.26,869.07,51.78Zm21.4,0,1.21-.87a7.37,7.37,0,0,0,1,1.76.8.8,0,0,0,.58.32.77.77,0,0,0,.3-.06l.06,0c-.07,0-.05,0,.06,0,.81-.8-.62-1.89-1.26-2.46l1.19-.89c.89,1.2,2.21,3.16.67,4.25S891.34,53,890.47,51.77Zm15.14-15.14.24-1.47a7.28,7.28,0,0,0,1.92.56.78.78,0,0,0,.64-.18.73.73,0,0,0,.17-.26c0-.13,0-.15,0-.07s0,0,0-.07c0-1.14-1.78-.9-2.63-.85l.21-1.47c1.48.22,3.8.67,3.48,2.53S907.09,36.88,905.61,36.63Zm0-21.41L904.73,14a7.15,7.15,0,0,0,1.76-1,.8.8,0,0,0,.32-.58.6.6,0,0,0-.06-.3c-.07-.11-.08-.14,0-.07s0,.05,0-.06c-.8-.81-1.89.63-2.46,1.27l-.89-1.2c1.2-.89,3.16-2.21,4.25-.67S906.83,14.36,905.6,15.22ZM890.46.09,889-.15a7.24,7.24,0,0,0,.56-1.93.79.79,0,0,0-.18-.64.71.71,0,0,0-.26-.16l-.07,0c.08,0,.05,0-.07,0-1.14,0-.9,1.77-.85,2.63L886.65-.5c.22-1.48.67-3.8,2.53-3.48S890.71-1.39,890.46.09Zm-21.41,0L867.84,1a7,7,0,0,0-1-1.76.78.78,0,0,0-.58-.33A.73.73,0,0,0,866-1c-.11.06-.13.08-.06,0l-.07,0c-.81.8.63,1.88,1.27,2.45l-1.2.9c-.89-1.21-2.21-3.17-.67-4.25S868.19-1.13,869.05.09ZM850,22.63a.24.24,0,0,0,0,.12c.12,1,2,.67,2.77.62l-.15,1.5c-1.45-.16-3.91-.49-3.7-2.35s2.67-1.65,4.12-1.49c-.06.5-.12,1-.17,1.5-.71-.22-2.5-1-2.85,0A.52.52,0,0,0,850,22.63Zm11-20.06a.6.6,0,0,0-.08.08c-.65.82,1,1.92,1.52,2.4l-1.17,1c-.91-1.14-2.41-3.11-1-4.28s3.06.72,4,1.86l-1.19.94c-.35-.65-1.06-2.47-2-2Zm22-6.37H883c-1,.13-.68,2.05-.62,2.78l-1.5-.15c.16-1.45.49-3.91,2.35-3.7s1.65,2.67,1.49,4.12l-1.5-.18c.21-.7,1-2.49,0-2.84Zm20.06,11a.3.3,0,0,0-.08-.08c-.82-.65-1.92,1-2.4,1.52l-.95-1.17c1.14-.91,3.11-2.42,4.28-1s-.73,3.06-1.87,4l-.93-1.19c.65-.35,2.47-1.06,2-2A.24.24,0,0,0,903.12,7.24Zm6.38,22a.41.41,0,0,0,0-.11c-.12-1-2-.68-2.78-.62.06-.5.11-1,.16-1.5,1.45.16,3.9.48,3.7,2.35s-2.68,1.65-4.13,1.49l.18-1.5c.71.21,2.5,1,2.85,0A.43.43,0,0,0,909.5,29.23Zm-11,20.06a.6.6,0,0,0,.08-.08c.65-.82-1-1.92-1.53-2.4.4-.31.79-.63,1.18-1,.91,1.14,2.41,3.11.95,4.28s-3.06-.73-4-1.87l1.19-.93c.34.65,1.06,2.47,2,2A.33.33,0,0,0,898.46,49.29Zm-22,6.38h.11c1-.12.67-2,.62-2.78l1.5.16c-.16,1.45-.49,3.9-2.35,3.7s-1.65-2.68-1.49-4.13l1.5.18c-.22.71-1,2.5,0,2.85Zm-20.07-11,.08.08c.83.65,1.92-1,2.4-1.53l1,1.17c-1.14.92-3.11,2.42-4.28,1s.72-3.06,1.86-4c.31.39.62.79.94,1.18-.65.35-2.47,1.07-2,2Zm-8.92-22.28c-.29,2.66,3.06,3.2,5.08,3.43,0,.06,0,.11,0,.17-2.08-.14-5.31-.17-5.5,2.49s3,3.06,5.11,3.18c0,.05,0,.11,0,.17-2,0-5.34.11-5.42,2.74a2.77,2.77,0,0,0,.15.94,2.36,2.36,0,0,0,.38.87c1.47,2.18,4.33.52,6-.58l.1.14c-1.69,1.21-4.2,3.26-2.61,5.42s4.29.39,6-.84l.1.14c-1.58,1.27-4.13,3.52-2.45,5.61s4.42.09,6-1.17l.11.13c-1.57,1.37-3.88,3.63-2.13,5.64s4.31,0,5.86-1.36l.12.13c-1.45,1.43-3.7,3.86-1.89,5.76a2.44,2.44,0,0,0,.76.57,2.55,2.55,0,0,0,.89.35c2.58.5,3.43-2.7,3.86-4.69l.17,0c-.34,2.05-.67,5.28,2,5.68s3.32-2.76,3.63-4.82l.17,0c-.21,2-.43,5.41,2.23,5.7s3.2-3.06,3.43-5.08l.17,0c-.14,2.08-.17,5.31,2.49,5.5s3.06-3,3.18-5.11h.17c0,2,.11,5.35,2.74,5.42a2.51,2.51,0,0,0,.94-.14,2.39,2.39,0,0,0,.87-.39c2.18-1.46.52-4.32-.58-6l.14-.11c1.21,1.7,3.26,4.21,5.42,2.62s.39-4.3-.84-6l.14-.11c1.27,1.58,3.52,4.13,5.61,2.46s.09-4.42-1.17-6l.13-.11c1.37,1.57,3.63,3.87,5.65,2.12s0-4.31-1.37-5.86l.13-.12c1.43,1.46,3.86,3.71,5.76,1.9a2.37,2.37,0,0,0,.57-.77,2.47,2.47,0,0,0,.35-.89c.5-2.58-2.7-3.42-4.69-3.85l0-.17c2,.34,5.28.66,5.68-2s-2.76-3.31-4.81-3.63a1.11,1.11,0,0,1,0-.17c2,.22,5.41.43,5.7-2.23S909,26.32,907,26.09c0-.06,0-.12,0-.17,2.08.14,5.31.17,5.5-2.49s-3-3.07-5.11-3.18a1.09,1.09,0,0,1,0-.18c2,0,5.34-.1,5.41-2.73a2.48,2.48,0,0,0-.14-.94,2.67,2.67,0,0,0-.38-.88c-1.47-2.18-4.33-.51-6,.59l-.1-.14c1.69-1.21,4.2-3.27,2.61-5.42s-4.29-.4-6,.84a1.71,1.71,0,0,0-.11-.14c1.58-1.28,4.13-3.52,2.46-5.61s-4.42-.1-6,1.17L899,6.68C900.57,5.31,902.87,3,901.13,1s-4.32,0-5.87,1.36a.69.69,0,0,1-.11-.13C896.6.83,898.85-1.59,897-3.5a2.52,2.52,0,0,0-.77-.57,2.69,2.69,0,0,0-.88-.34c-2.58-.51-3.43,2.69-3.86,4.68l-.17,0c.34-2,.66-5.28-2-5.68s-3.31,2.76-3.63,4.82l-.17,0c.22-2,.43-5.41-2.23-5.71s-3.19,3.06-3.42,5.08h-.17c.14-2.08.17-5.31-2.49-5.5s-3.06,3-3.18,5.11h-.18c0-2-.1-5.34-2.73-5.42a2.48,2.48,0,0,0-.94.14,2.71,2.71,0,0,0-.88.39c-2.18,1.47-.51,4.33.59,6l-.14.1c-1.21-1.69-3.26-4.21-5.42-2.62s-.4,4.3.84,6l-.14.1c-1.28-1.58-3.52-4.13-5.61-2.45s-.1,4.42,1.17,6l-.13.11c-1.37-1.57-3.64-3.88-5.65-2.13s0,4.31,1.37,5.86l-.13.12c-1.43-1.45-3.86-3.7-5.77-1.9a2.78,2.78,0,0,0-.57.77,2.75,2.75,0,0,0-.34.89c-.51,2.58,2.69,3.42,4.69,3.86l0,.17c-2.06-.34-5.28-.67-5.69,2s2.76,3.32,4.82,3.63c0,.06,0,.12,0,.17C851.17,19.91,847.78,19.69,847.48,22.35ZM845.18,36c-.15-1.44-.34-2.87-.61-4.3a25.15,25.15,0,0,0-2.14-6.82l.22.05c1.61.27,2.88-1.25,3.05-2.74s-.75-3.25-2.38-3.33h-.22a25.39,25.39,0,0,0,3.58-6.19c.57-1.33,1.08-2.69,1.54-4.06.91-1.12,1.79-2.27,2.6-3.47a25.05,25.05,0,0,0,3.32-6.34,2,2,0,0,0,.12.19c.94,1.33,2.92,1.16,4.09.22s1.77-2.82.68-4L858.87-5a25.23,25.23,0,0,0,6.91-1.85c1.34-.53,2.66-1.14,4-1.78,1.43-.15,2.87-.34,4.29-.61a25.22,25.22,0,0,0,6.83-2.14,1.42,1.42,0,0,0-.05.22c-.28,1.61,1.25,2.88,2.73,3s3.25-.75,3.34-2.38a1.62,1.62,0,0,0,0-.22,25.45,25.45,0,0,0,6.2,3.58c1.33.57,2.68,1.08,4,1.54,1.13.91,2.28,1.79,3.48,2.6A25,25,0,0,0,906.93.31a1.88,1.88,0,0,0-.18.12c-1.34.94-1.16,2.92-.23,4.08s2.83,1.78,4,.68l.16-.15a24.72,24.72,0,0,0,1.85,6.9c.53,1.35,1.13,2.67,1.77,4,.15,1.44.35,2.88.62,4.3A25.3,25.3,0,0,0,917.09,27l-.21-.05c-1.61-.28-2.88,1.25-3,2.73s.74,3.25,2.37,3.34h.23a24.82,24.82,0,0,0-3.58,6.2c-.58,1.33-1.08,2.68-1.54,4-.91,1.13-1.79,2.28-2.61,3.48a25.31,25.31,0,0,0-3.32,6.33l-.11-.19c-.94-1.33-2.92-1.15-4.09-.22s-1.77,2.83-.68,4c0,.06.11.1.16.15a25.15,25.15,0,0,0-6.91,1.86c-1.35.53-2.66,1.13-4,1.77-1.44.15-2.87.35-4.29.62a24.74,24.74,0,0,0-6.83,2.13,1.6,1.6,0,0,0,.05-.21c.27-1.61-1.25-2.89-2.73-3s-3.26.74-3.34,2.37v.23A24.76,24.76,0,0,0,866.46,59c-1.33-.58-2.69-1.08-4.06-1.54-1.12-.92-2.27-1.79-3.47-2.61a25.38,25.38,0,0,0-6.34-3.32,1.18,1.18,0,0,0,.19-.11c1.33-.95,1.16-2.92.22-4.09s-2.82-1.77-4-.68c-.06,0-.11.11-.16.16A24.78,24.78,0,0,0,847,39.92C846.43,38.57,845.83,37.26,845.18,36Zm6.43-1.86c-.77-.18-1.83-.39-2.21.21a.37.37,0,0,0-.12.29.47.47,0,0,0,0,.17.4.4,0,0,0,.09.15.35.35,0,0,0,.25.18C850.27,35.4,851.05,34.66,851.61,34.1Zm14,17.52c-.67.41-1.57,1-1.41,1.71a.33.33,0,0,0,.12.28.33.33,0,0,0,.13.11.25.25,0,0,0,.16.05.34.34,0,0,0,.31-.05C865.6,53.49,865.63,52.4,865.63,51.62Zm22.3,2.47c-.18.77-.39,1.83.21,2.21a.36.36,0,0,0,.29.11.32.32,0,0,0,.17,0,.37.37,0,0,0,.15-.08.35.35,0,0,0,.18-.25C889.24,55.43,888.49,54.64,887.93,54.09Zm17.52-14c.42.66,1,1.57,1.71,1.41a.33.33,0,0,0,.28-.12.47.47,0,0,0,.12-.13.42.42,0,0,0,0-.16.36.36,0,0,0,0-.31C907.32,40.09,906.23,40.07,905.45,40.07Zm2.47-22.3c.77.17,1.83.38,2.21-.21a.36.36,0,0,0,.11-.29.31.31,0,0,0,0-.17.37.37,0,0,0-.08-.15.36.36,0,0,0-.25-.19C909.26,16.46,908.47,17.21,907.92,17.77ZM893.9.25c.67-.42,1.57-1,1.41-1.71a.35.35,0,0,0-.12-.29.33.33,0,0,0-.13-.11.38.38,0,0,0-.16,0,.36.36,0,0,0-.31,0C893.92-1.62,893.9-.54,893.9.25ZM871.6-2.22c.17-.77.39-1.84-.21-2.21a.37.37,0,0,0-.29-.12.46.46,0,0,0-.17,0,.55.55,0,0,0-.15.08.34.34,0,0,0-.18.26C870.29-3.56,871-2.78,871.6-2.22Zm-17.52,14c-.42-.67-1-1.57-1.71-1.42a.41.41,0,0,0-.29.13.43.43,0,0,0-.16.29.37.37,0,0,0,.05.31C852.21,11.77,853.29,11.8,854.08,11.8Zm-5.82,23.27a1.88,1.88,0,0,1,0-.33c-.13-2,2.41-2.05,3.9-2,0,.42,0,.84,0,1.26l.71,1c-1.25.81-3.44,2.1-4.39.37A2.58,2.58,0,0,1,848.26,35.07ZM864,54.67a2.34,2.34,0,0,1-.27-.2c-1.49-1.31.25-3.15,1.32-4.2.28.31.57.62.86.92l1.24.24c-.31,1.46-.94,3.92-2.84,3.36A1.43,1.43,0,0,1,864,54.67Zm24.95,2.76a1.61,1.61,0,0,1-.33.06c-2,.12-2.05-2.41-2-3.91l1.26,0,1.05-.71c.81,1.26,2.1,3.44.37,4.39A1.58,1.58,0,0,1,888.9,57.43Zm19.6-15.68a2.34,2.34,0,0,1-.2.27c-1.3,1.49-3.15-.26-4.2-1.32l.92-.86.24-1.25c1.46.32,3.92.95,3.36,2.85A1.66,1.66,0,0,1,908.5,41.75Zm2.77-24.95a2.88,2.88,0,0,1,.05.33c.13,2-2.41,2.05-3.91,2,0-.42,0-.84.05-1.26l-.72-1c1.26-.81,3.44-2.11,4.39-.37A2.12,2.12,0,0,1,911.27,16.8ZM895.58-2.8a2.22,2.22,0,0,1,.27.19c1.49,1.31-.25,3.16-1.32,4.21l-.86-.93L892.42.44c.32-1.46,1-3.92,2.85-3.37Zm-25-2.77a1.63,1.63,0,0,1,.33,0c2-.13,2,2.41,2,3.9l-1.27,0-1,.71c-.81-1.25-2.11-3.44-.37-4.39A2,2,0,0,1,870.63-5.57ZM851,10.12a1.05,1.05,0,0,1,.2-.27c1.3-1.49,3.15.25,4.2,1.32l-.93.86c-.08.41-.16.83-.23,1.24-1.46-.31-3.92-.94-3.37-2.84A1.81,1.81,0,0,1,851,10.12Z" transform="translate(5.49 24.58)" style="fill:url(#åçûìßííûé_ãðàäèåíò_21-4)"/><path d="M859.12,29.12a47,47,0,0,0-4.44-5.33.51.51,0,0,0-.13-.09.43.43,0,0,0-.81.12q-.32,3.48-.43,7c1.32,1.93,2.68,3.82,4.1,5.68a.43.43,0,0,0,.75-.33.44.44,0,0,0,.06-.16A45.5,45.5,0,0,0,859.12,29.12Zm1.63-14.63a46.83,46.83,0,0,0,.62-6.91.41.41,0,0,0,0-.16.43.43,0,0,0-.66-.49c-1.78,1.5-3.53,3.05-5.23,4.64-.44,2.29-.81,4.6-1.12,6.91a.43.43,0,0,0,.76.3.51.51,0,0,0,.15-.07A47,47,0,0,0,860.75,14.49Zm11.49-9.2A46.88,46.88,0,0,0,877.56.85a.38.38,0,0,0,.1-.13.43.43,0,0,0-.12-.81q-3.49-.32-7-.43c-1.92,1.31-3.82,2.68-5.67,4.1a.43.43,0,0,0,.33.75.52.52,0,0,0,.15.06A47,47,0,0,0,872.24,5.29Zm14.63,1.63a46.81,46.81,0,0,0,6.9.62.38.38,0,0,0,.16,0c.36.13.79-.3.49-.66-1.5-1.79-3-3.53-4.64-5.24Q886.35,1,882.88.5a.43.43,0,0,0-.3.76.47.47,0,0,0,.06.15A48.2,48.2,0,0,0,886.87,6.92Zm9.19,11.49a47,47,0,0,0,4.45,5.32l.13.1a.43.43,0,0,0,.81-.12c.2-2.33.35-4.66.42-7-1.31-1.93-2.68-3.82-4.09-5.67a.43.43,0,0,0-.75.33.34.34,0,0,0-.06.15A47,47,0,0,0,896.06,18.41ZM894.44,33a47.07,47.07,0,0,0-.62,6.91.41.41,0,0,0,0,.16c-.13.36.3.79.66.49q2.68-2.25,5.24-4.64c.43-2.29.81-4.59,1.12-6.91.06-.46-.54-.59-.77-.29a.47.47,0,0,0-.15.06A48,48,0,0,0,894.44,33ZM883,42.23a48.06,48.06,0,0,0-5.33,4.44.55.55,0,0,0-.09.14.43.43,0,0,0,.12.81c2.33.2,4.65.34,7,.42,1.93-1.31,3.82-2.68,5.68-4.09a.43.43,0,0,0-.33-.75l-.15-.06A47.14,47.14,0,0,0,883,42.23Zm-14.63-1.62a48.23,48.23,0,0,0-6.91-.63.41.41,0,0,0-.16,0,.43.43,0,0,0-.49.66c1.51,1.79,3,3.54,4.64,5.24,2.29.43,4.6.81,6.91,1.12a.43.43,0,0,0,.3-.77.34.34,0,0,0-.07-.15A46.9,46.9,0,0,0,868.32,40.61ZM854.87,30.35c0-1.37.11-2.73.2-4.1.94,1.05,1.83,2.14,2.68,3.27-.11,1.4-.28,2.8-.52,4.19C856.43,32.6,855.64,31.48,854.87,30.35Zm2-18c1-.93,2-1.85,3-2.75q-.12,2.12-.42,4.2c-1.07.91-2.18,1.78-3.33,2.6C856.38,15.05,856.61,13.7,856.87,12.35ZM871,1c1.37.05,2.74.11,4.1.2-1,.94-2.14,1.83-3.26,2.68-1.4-.12-2.8-.28-4.19-.52C868.75,2.6,869.87,1.81,871,1Zm18,2c.94,1,1.86,2,2.76,3q-2.12-.12-4.2-.42c-.92-1.07-1.79-2.18-2.6-3.33C886.31,2.55,887.66,2.78,889,3Zm11.32,14.13c-.05,1.37-.12,2.74-.2,4.1-1-1.05-1.84-2.14-2.68-3.26.11-1.41.28-2.8.51-4.19C898.76,14.92,899.55,16,900.32,17.17Zm-2,18c-1,.93-2,1.85-3,2.76.07-1.41.22-2.81.41-4.21,1.08-.91,2.18-1.78,3.33-2.59C898.81,32.48,898.58,33.83,898.32,35.17ZM884.18,46.48c-1.36,0-2.73-.11-4.1-.19,1-.95,2.14-1.84,3.27-2.69,1.4.12,2.8.29,4.19.52C886.43,44.93,885.31,45.71,884.18,46.48Zm-18-2c-.94-1-1.86-2-2.76-3,1.41.07,2.81.22,4.2.41.91,1.08,1.78,2.18,2.6,3.33C868.88,45,867.53,44.74,866.19,44.49Z" transform="translate(5.49 24.58)" style="fill:#218283"/><path d="M854.5,21.2a.44.44,0,0,0,.17.39,35.19,35.19,0,0,1,6.39,7,35.74,35.74,0,0,1-1.67,9.3.42.42,0,0,0,.07.42.43.43,0,0,0,.39.16,35.06,35.06,0,0,1,9.44.4,35.06,35.06,0,0,1,5.4,7.77.42.42,0,0,0,.34.24.44.44,0,0,0,.39-.16,35.52,35.52,0,0,1,7-6.4,35.27,35.27,0,0,1,9.3,1.68.44.44,0,0,0,.42-.07.46.46,0,0,0,.16-.39,35.15,35.15,0,0,1,.4-9.45,35.36,35.36,0,0,1,7.77-5.39.45.45,0,0,0,.24-.35.42.42,0,0,0-.16-.39,35.49,35.49,0,0,1-6.4-7,35.41,35.41,0,0,1,1.68-9.31.43.43,0,0,0-.07-.41.43.43,0,0,0-.39-.16,35.57,35.57,0,0,1-9.45-.41A35.53,35.53,0,0,1,880.5.92a.46.46,0,0,0-.35-.25.43.43,0,0,0-.38.17,35.47,35.47,0,0,1-7,6.39,35.81,35.81,0,0,1-9.31-1.67.42.42,0,0,0-.41.06.44.44,0,0,0-.16.4,35.49,35.49,0,0,1-.4,9.44,35.53,35.53,0,0,1-7.77,5.4A.43.43,0,0,0,854.5,21.2Zm10,1.11a2.71,2.71,0,0,1-2.34,2.27,3.29,3.29,0,0,1-2.46-.86c-.92-.72-1.66-1.6-2.62-2.24,1.07-.41,2-1.1,3.05-1.61a3.3,3.3,0,0,1,2.59-.29A2.7,2.7,0,0,1,864.46,22.31Zm4.88-8.86a2.72,2.72,0,0,1-3.26,0,3.27,3.27,0,0,1-1.14-2.35c-.13-1.16-.05-2.31-.27-3.44,1.05.47,2.19.64,3.29,1a3.26,3.26,0,0,1,2,1.62A2.71,2.71,0,0,1,869.34,13.45Zm9.71-2.82a2.69,2.69,0,0,1-2.27-2.34,3.28,3.28,0,0,1,.85-2.46c.73-.92,1.6-1.67,2.24-2.62.42,1.07,1.11,2,1.61,3a3.27,3.27,0,0,1,.3,2.59A2.7,2.7,0,0,1,879.05,10.63Zm8.86,4.88a2.7,2.7,0,0,1,.05-3.26,3.25,3.25,0,0,1,2.34-1.14c1.17-.14,2.31,0,3.44-.27-.47,1.05-.63,2.19-1,3.29a3.26,3.26,0,0,1-1.62,2A2.69,2.69,0,0,1,887.91,15.51Zm2.82,9.71A2.68,2.68,0,0,1,893.07,23a3.29,3.29,0,0,1,2.46.85c.91.73,1.66,1.6,2.62,2.24-1.08.42-2,1.1-3,1.61a3.27,3.27,0,0,1-2.59.3A2.7,2.7,0,0,1,890.73,25.22Zm-4.88,8.86a2.69,2.69,0,0,1,3.26.05,3.29,3.29,0,0,1,1.14,2.34c.13,1.16,0,2.31.27,3.44-1.06-.47-2.19-.63-3.3-1a3.28,3.28,0,0,1-2-1.62A2.71,2.71,0,0,1,885.85,34.08Zm-9.71,2.82a2.69,2.69,0,0,1,2.27,2.33,3.27,3.27,0,0,1-.86,2.47c-.72.91-1.6,1.66-2.24,2.62-.41-1.08-1.1-2-1.61-3a3.31,3.31,0,0,1-.29-2.59A2.69,2.69,0,0,1,876.14,36.9ZM867.28,32a2.72,2.72,0,0,1,0,3.26,3.29,3.29,0,0,1-2.35,1.14c-1.16.13-2.3,0-3.43.27.46-1.06.63-2.19,1-3.3a3.3,3.3,0,0,1,1.63-2A2.7,2.7,0,0,1,867.28,32Zm1.25-9.26a6.34,6.34,0,0,1-1.76,4.14,6.31,6.31,0,0,1,3.7,2.56,6.3,6.3,0,0,1,1.69,4.18,7.83,7.83,0,0,1,8.57,1,6.41,6.41,0,0,1,2.56-3.71,6.36,6.36,0,0,1,4.18-1.68,6.32,6.32,0,0,1-.81-4.43,6.36,6.36,0,0,1,1.76-4.15,6.32,6.32,0,0,1-3.71-2.56A6.33,6.33,0,0,1,883,13.89a6.37,6.37,0,0,1-4.43.81,6.36,6.36,0,0,1-4.15-1.76,6.27,6.27,0,0,1-2.56,3.7,6.35,6.35,0,0,1-4.17,1.69A6.35,6.35,0,0,1,868.53,22.76Zm-4.73,5c-1.26-.28-2.2-1.4-3.11-2.48l.46.11a3.58,3.58,0,0,0,4.16-3,3.58,3.58,0,0,0-3.4-3.83,3.65,3.65,0,0,0-.47,0c1.12-.85,2.28-1.74,3.58-1.74-.7-1.09-.57-2.55-.45-4a3.45,3.45,0,0,0,.25.41,3.56,3.56,0,0,0,5,.82A3.58,3.58,0,0,0,870.18,9a3.49,3.49,0,0,0-.35-.32c1.4.18,2.85.38,3.76,1.29.28-1.26,1.41-2.2,2.49-3.11a3.45,3.45,0,0,0-.12.46,3.45,3.45,0,1,0,6.81.29c.86,1.12,1.75,2.28,1.75,3.57,1.09-.69,2.55-.56,4-.44a3.26,3.26,0,0,0-.4.24,3.59,3.59,0,0,0-.83,5.06,3.58,3.58,0,0,0,5.12.3,3.47,3.47,0,0,0,.32-.34c-.19,1.4-.38,2.85-1.3,3.76,1.26.28,2.2,1.41,3.11,2.49a3.45,3.45,0,0,0-.46-.12,3.58,3.58,0,0,0-4.15,3,3.59,3.59,0,0,0,3.4,3.84,3.7,3.7,0,0,0,.47,0c-1.12.86-2.29,1.75-3.58,1.74.7,1.1.57,2.55.44,4a4.36,4.36,0,0,0-.24-.41,3.44,3.44,0,1,0-5,4.62c-1.4-.19-2.86-.38-3.77-1.3-.28,1.26-1.4,2.2-2.48,3.11a3.43,3.43,0,0,0,.11-.46,3.45,3.45,0,1,0-6.82-.75,3.69,3.69,0,0,0,0,.47c-.85-1.12-1.74-2.29-1.74-3.58-1.09.7-2.55.56-4,.44a3.38,3.38,0,0,0,.41-.24,3.45,3.45,0,1,0-4.29-5.36c-.12.11-.22.23-.32.34C862.7,30.12,862.89,28.67,863.8,27.76Zm4.41-1.28a8.22,8.22,0,0,0,1.16-3.63,8.51,8.51,0,0,0-.33-3.8,8.44,8.44,0,0,0,3.39-1.74,8.44,8.44,0,0,0,2.44-2.93,8.39,8.39,0,0,0,3.63,1.16,8.35,8.35,0,0,0,3.8-.34,8.57,8.57,0,0,0,1.75,3.4A8.27,8.27,0,0,0,887,21a8.4,8.4,0,0,0-1.17,3.63,8.5,8.5,0,0,0,.34,3.8,9.69,9.69,0,0,0-5.84,4.67,9.63,9.63,0,0,0-7.43-.82,8.38,8.38,0,0,0-1.74-3.39A8.58,8.58,0,0,0,868.21,26.48ZM873,23.25a10.46,10.46,0,0,1-.41,2,10.57,10.57,0,0,1,1.4,1.44,11.21,11.21,0,0,1,1.1,1.67,11.11,11.11,0,0,1,2,0,12.32,12.32,0,0,1,2,.41,10.81,10.81,0,0,1,3.11-2.49,11.22,11.22,0,0,1,0-2,12.43,12.43,0,0,1,.41-2,11.1,11.1,0,0,1-1.39-1.44,11.31,11.31,0,0,1-1.1-1.68,11.22,11.22,0,0,1-2,0,10.53,10.53,0,0,1-2-.41,11.2,11.2,0,0,1-1.44,1.4,11.31,11.31,0,0,1-1.68,1.1A11.11,11.11,0,0,1,873,23.25Zm3.76.42c0,.12,0,.23,0,.35l.23.27c.07.1.15.19.22.28l.35,0,.35,0,.28-.22.27-.22c0-.12,0-.24,0-.35s0-.24,0-.36l-.22-.27c-.08-.09-.15-.19-.22-.28l-.35,0-.35-.05-.28.23-.28.22Zm-3.2,1.27a13,13,0,0,0,.29-1.59,10.87,10.87,0,0,0,.06-1.62,11.6,11.6,0,0,0,1.33-.92,12.19,12.19,0,0,0,1.19-1.09A12.66,12.66,0,0,0,878,20a10.79,10.79,0,0,0,1.61.06,11.6,11.6,0,0,0,.92,1.33,12.31,12.31,0,0,0,1.1,1.19,11.08,11.08,0,0,0-.29,1.59,12.32,12.32,0,0,0-.07,1.61,12.54,12.54,0,0,0-1.33.92,11.07,11.07,0,0,0-1.18,1.1,11.33,11.33,0,0,0-1.59-.29,12.39,12.39,0,0,0-1.62-.07,11.22,11.22,0,0,0-.92-1.33A12.09,12.09,0,0,0,873.55,24.94Z" transform="translate(5.49 24.58)" style="fill:#f0b04c"/><path d="M836.29,19.18a.4.4,0,0,0,.16.39c3.84,2.9,4.76,8.5,5.33,13L842,34.1c.23.46.46.94.68,1.41,1.91,4.08,4.13,9.3,2.44,13.8a.41.41,0,0,0,.07.42.4.4,0,0,0,.39.16c4.76-.66,9.37,2.65,12.93,5.4.42.32.83.65,1.23,1l1.48.52c4.24,1.53,9.5,3.65,11.49,8a.4.4,0,0,0,.34.24.4.4,0,0,0,.39-.16c2.9-3.83,8.5-4.75,13-5.32l1.56-.18,1.41-.68c4.08-1.91,9.3-4.13,13.8-2.44a.39.39,0,0,0,.42-.08.39.39,0,0,0,.16-.38c-.66-4.77,2.65-9.38,5.41-12.94l1-1.23c.17-.49.34-1,.52-1.48,1.53-4.23,3.65-9.49,8-11.48a.45.45,0,0,0,.08-.74c-3.83-2.9-4.75-8.5-5.32-13q-.1-.78-.18-1.56c-.23-.47-.46-.94-.68-1.41-1.91-4.08-4.13-9.3-2.44-13.81A.39.39,0,0,0,910-2.2a.39.39,0,0,0-.39-.16c-4.77.66-9.38-2.65-12.94-5.41l-1.22-1c-.5-.16-1-.33-1.49-.51-4.23-1.53-9.49-3.66-11.48-8a.41.41,0,0,0-.35-.24.38.38,0,0,0-.38.16c-2.91,3.84-8.51,4.76-13,5.33l-1.56.17q-.71.36-1.41.69c-4.08,1.91-9.3,4.12-13.81,2.44a.39.39,0,0,0-.41.07.38.38,0,0,0-.16.39c.66,4.76-2.65,9.37-5.41,12.93-.32.42-.64.82-1,1.23-.17.5-.34,1-.52,1.48-1.53,4.23-3.66,9.5-8,11.49A.39.39,0,0,0,836.29,19.18Zm6.13.68a2.05,2.05,0,0,1-1.55,1.86,1.7,1.7,0,0,1-1.49-.69l0,0a19.82,19.82,0,0,0-1.45-1.58l-.07-.06h0l.08,0a18.58,18.58,0,0,0,1.76-1.23l.05,0a1.69,1.69,0,0,1,1.61-.34A2,2,0,0,1,842.42,19.86ZM855.48-3.87a2,2,0,0,1-2.41.22,1.7,1.7,0,0,1-.57-1.54v-.06a19.27,19.27,0,0,0,.1-2.14s0-.06,0-.09h0l.09,0a20.45,20.45,0,0,0,2.1.37h.06a1.71,1.71,0,0,1,1.38.9A2,2,0,0,1,855.48-3.87Zm26-7.54A2,2,0,0,1,879.64-13a1.72,1.72,0,0,1,.68-1.5l0,0A18.26,18.26,0,0,0,882-15.94l0-.07h0a.56.56,0,0,0,0,.08,18.47,18.47,0,0,0,1.22,1.76l0,.05a1.73,1.73,0,0,1,.34,1.6A2.05,2.05,0,0,1,881.49-11.41ZM905.23,1.65A2,2,0,0,1,905-.76a1.73,1.73,0,0,1,1.55-.57h.05a19.38,19.38,0,0,0,2.14.1h.09s0,.06,0,.08A18.64,18.64,0,0,0,908.43,1V1a1.68,1.68,0,0,1-.9,1.38A2,2,0,0,1,905.23,1.65Zm7.54,26a2,2,0,0,1,1.55-1.85,1.67,1.67,0,0,1,1.49.68l0,0a18.27,18.27,0,0,0,1.44,1.58l.07.06h0a.2.2,0,0,1-.08,0,20.48,20.48,0,0,0-1.75,1.23l0,0a1.69,1.69,0,0,1-1.61.34A2,2,0,0,1,912.77,27.66ZM899.71,51.39a2,2,0,0,1,2.4-.22,1.71,1.71,0,0,1,.58,1.55v.05a17.21,17.21,0,0,0-.1,2.14.28.28,0,0,0,0,.09h0l-.09,0a17.87,17.87,0,0,0-2.11-.38h-.06a1.68,1.68,0,0,1-1.37-.9A2,2,0,0,1,899.71,51.39Zm-26,7.55a2,2,0,0,1,1.86,1.54,1.72,1.72,0,0,1-.68,1.5l0,0c-.53.49-1.11.91-1.58,1.44l-.06.07h0a.59.59,0,0,0,0-.08,18.46,18.46,0,0,0-1.23-1.75l0-.05a1.69,1.69,0,0,1-.34-1.61A2.05,2.05,0,0,1,873.69,58.94ZM850,45.88a2,2,0,0,1,.22,2.4,1.68,1.68,0,0,1-1.54.58h-.06a17.12,17.12,0,0,0-2.14-.1h-.09l0-.08a18.23,18.23,0,0,0,.37-2.11v-.06a1.76,1.76,0,0,1,.9-1.38A2,2,0,0,1,850,45.88Zm1.15-14.44c.11-3.51.35-7,.73-10.53s.93-7,1.59-10.45c2.56-2.4,5.22-4.72,8-6.93s5.6-4.28,8.51-6.26c3.52.12,7,.36,10.54.74s7,.93,10.44,1.59q3.61,3.84,6.93,8t6.26,8.51c-.11,3.51-.35,7-.74,10.54s-.92,7-1.59,10.44q-3.84,3.61-8,6.93c-2.75,2.2-5.6,4.29-8.51,6.26-3.51-.11-7-.35-10.53-.74s-7-.93-10.44-1.59q-3.62-3.84-6.94-8T851.11,31.44Zm-4.76-5c.09-1.89,2.46-1.82,3.95-1.71l-.12,1.48c-.82-.23-2.5-.86-2.75.25v.15a.65.65,0,0,0,.11.29.77.77,0,0,0,.58.31,7.07,7.07,0,0,0,2-.12L850,28.54C848.53,28.46,846.26,28.23,846.35,26.4Zm11,21.32c-1.26-1.4.46-3,1.59-4l1,1.13c-.75.42-2.39,1.16-1.77,2.12l.05.05c-.06-.05,0,0,0,0a.67.67,0,0,0,.28.14.85.85,0,0,0,.64-.2,7,7,0,0,0,1.32-1.5l1,1.12C860.37,47.63,858.6,49.08,857.36,47.72ZM880.23,55c-1.89-.1-1.82-2.46-1.71-3.95l1.49.11c-.24.83-.87,2.51.24,2.76h.15a1,1,0,0,0,.29-.11.83.83,0,0,0,.32-.59,7.51,7.51,0,0,0-.13-2l1.49.09C882.29,52.82,882.07,55.1,880.23,55Zm21.32-11c-1.4,1.27-3-.45-4-1.58l1.13-1c.42.75,1.16,2.38,2.12,1.77l.05-.05c-.05.06,0,0,.06,0a1,1,0,0,0,.13-.28.83.83,0,0,0-.19-.64,7.1,7.1,0,0,0-1.51-1.33c.38-.33.75-.65,1.12-1C901.46,41,902.91,42.76,901.55,44Zm7.29-22.86c-.09,1.88-2.46,1.81-4,1.71,0-.5.08-1,.11-1.49.83.24,2.51.87,2.76-.25,0-.13,0-.15,0-.07V21a.68.68,0,0,0-.11-.29.77.77,0,0,0-.58-.32,7.56,7.56,0,0,0-2,.12c0-.49.07-1,.09-1.48C906.65,19.06,908.93,19.29,908.84,21.13Zm-11-21.32c1.27,1.39-.45,3-1.58,4l-1-1.14c.75-.41,2.38-1.16,1.77-2.12-.09-.08-.11-.1,0-.05l0,0a.79.79,0,0,0-.28-.13.79.79,0,0,0-.64.19A7,7,0,0,0,894.69,2q-.48-.55-1-1.11C894.82-.11,896.59-1.56,897.82-.19ZM875-7.48c1.88.09,1.82,2.46,1.71,4l-1.49-.12c.24-.82.87-2.5-.25-2.75h-.14a.72.72,0,0,0-.29.1.85.85,0,0,0-.32.59,7.07,7.07,0,0,0,.13,2l-1.49-.09C872.89-5.3,873.12-7.57,875-7.48Zm-21.32,11c1.39-1.26,3,.45,4,1.59-.38.32-.76.64-1.13,1-.42-.75-1.16-2.39-2.13-1.78l0,.06c.06-.06,0,0-.05,0a.66.66,0,0,0-.13.28.8.8,0,0,0,.19.64,7.56,7.56,0,0,0,1.5,1.32l-1.11,1C853.72,6.54,852.27,4.77,853.64,3.53Zm-1.89,9.54-.24,1.47a6.89,6.89,0,0,0-1.93-.56.79.79,0,0,0-.64.18.63.63,0,0,0-.16.26c0,.12,0,.14,0,.07s0-.06,0,.07c0,1.14,1.77.89,2.63.84-.08.49-.15,1-.22,1.48-1.48-.22-3.8-.68-3.48-2.53S850.27,12.81,851.75,13.07Zm0,21.4c.28.41.57.81.87,1.21a7.18,7.18,0,0,0-1.76,1,.81.81,0,0,0-.33.58.82.82,0,0,0,.07.3c.06.11.08.13,0,.06s0-.05,0,.06c.8.81,1.88-.62,2.45-1.26l.9,1.19c-1.2.89-3.17,2.21-4.25.67S850.53,35.34,851.76,34.47ZM866.9,49.61l1.47.23a7,7,0,0,0-.56,1.93.78.78,0,0,0,.18.64.65.65,0,0,0,.26.17c.12,0,.14,0,.07,0l.07,0c1.14,0,.89-1.78.84-2.63l1.48.21c-.22,1.48-.68,3.8-2.53,3.48S866.64,51.09,866.9,49.61Zm21.4,0,1.21-.87a7.37,7.37,0,0,0,1,1.76.8.8,0,0,0,.58.32.77.77,0,0,0,.3-.06l.06,0c-.07,0,0,0,.06,0,.81-.81-.62-1.89-1.26-2.46l1.19-.89c.89,1.2,2.21,3.16.67,4.25S889.17,50.83,888.3,49.6Zm15.14-15.14.24-1.47a7.28,7.28,0,0,0,1.92.56.78.78,0,0,0,.64-.18.73.73,0,0,0,.17-.26c0-.13,0-.15,0-.07s0,.05,0-.07c0-1.14-1.78-.9-2.63-.85l.21-1.47c1.48.22,3.8.67,3.48,2.53S904.92,34.71,903.44,34.46Zm0-21.41-.87-1.21a7.15,7.15,0,0,0,1.76-1,.8.8,0,0,0,.32-.58.6.6,0,0,0-.06-.3c-.07-.11-.08-.14,0-.07s0,.05,0-.06c-.8-.81-1.89.63-2.46,1.27l-.89-1.2c1.2-.89,3.16-2.21,4.25-.67S904.66,12.19,903.43,13.05ZM888.29-2.08l-1.47-.24a7.24,7.24,0,0,0,.56-1.93.79.79,0,0,0-.18-.64.71.71,0,0,0-.26-.16l-.07,0c.07,0,0,0-.07,0-1.14,0-.9,1.77-.85,2.63l-1.47-.22c.22-1.48.67-3.8,2.53-3.48S888.54-3.56,888.29-2.08Zm-21.41,0-1.21.88a7,7,0,0,0-1-1.76.78.78,0,0,0-.58-.33.73.73,0,0,0-.3.07c-.11.06-.13.08-.06,0l-.07,0c-.81.8.63,1.88,1.27,2.45l-1.2.9C862.88-1,861.56-3,863.1-4S866-3.3,866.88-2.08Zm-19,22.54a.49.49,0,0,0,0,.12c.13,1,2,.67,2.78.62l-.15,1.5c-1.45-.16-3.91-.49-3.7-2.36s2.67-1.64,4.12-1.48c-.06.5-.12,1-.17,1.5-.71-.22-2.5-1-2.85,0A.52.52,0,0,0,847.86,20.46ZM858.9.4l-.08.08c-.65.82,1,1.92,1.52,2.4l-1.17,1c-.91-1.14-2.41-3.11-.95-4.28s3.06.72,4,1.86L861,2.36c-.35-.65-1.06-2.47-2-2Zm22-6.37h-.11c-1,.13-.68,2.05-.62,2.78l-1.5-.15c.16-1.45.49-3.91,2.35-3.7s1.65,2.67,1.49,4.12L881-3.11c.21-.7,1-2.49,0-2.84ZM901,5.07,900.87,5c-.82-.65-1.92,1-2.4,1.52l-1-1.17c1.14-.91,3.11-2.42,4.28-1s-.73,3.06-1.87,4L899,7.17c.65-.35,2.47-1.06,2-2A.18.18,0,0,0,901,5.07Zm6.38,22a.41.41,0,0,0,0-.11c-.12-1-2-.68-2.78-.62.06-.5.11-1,.16-1.5,1.45.16,3.9.48,3.7,2.35s-2.68,1.65-4.13,1.49l.18-1.5c.71.21,2.5,1,2.85,0A.43.43,0,0,0,907.33,27.06Zm-11,20.06a.6.6,0,0,0,.08-.08c.65-.82-1-1.92-1.53-2.4.4-.31.79-.63,1.17-1,.92,1.14,2.42,3.11,1,4.28s-3.06-.73-4-1.87l1.18-.93c.35.65,1.07,2.47,2,2A.33.33,0,0,0,896.29,47.12Zm-22,6.38h.11c1-.12.67-2,.62-2.78l1.5.16c-.16,1.45-.49,3.9-2.35,3.7s-1.65-2.68-1.49-4.13l1.5.18c-.22.71-1,2.5,0,2.85Zm-20.07-11,.08.08c.83.65,1.92-1,2.4-1.53l1,1.17c-1.14.92-3.11,2.42-4.28,1s.72-3.06,1.86-4c.31.39.62.79.94,1.18-.65.35-2.47,1.07-2,2Zm-8.92-22.28c-.29,2.66,3.06,3.2,5.08,3.43,0,.06,0,.11,0,.17-2.08-.14-5.31-.17-5.5,2.49s3,3.06,5.11,3.18c0,.05,0,.11,0,.17-2,0-5.34.11-5.42,2.74a2.77,2.77,0,0,0,.15.94,2.43,2.43,0,0,0,.38.87c1.47,2.18,4.33.52,6-.59l.1.15c-1.69,1.21-4.2,3.26-2.61,5.42s4.29.39,6-.84l.1.14c-1.58,1.27-4.13,3.52-2.45,5.61s4.42.09,6-1.17l.11.13c-1.57,1.37-3.88,3.63-2.13,5.64s4.31,0,5.86-1.36l.12.13c-1.45,1.43-3.7,3.86-1.89,5.76a2.44,2.44,0,0,0,.76.57,2.55,2.55,0,0,0,.89.35c2.58.5,3.43-2.7,3.86-4.69l.17,0c-.34,2-.67,5.28,2,5.68s3.32-2.76,3.63-4.82l.17,0c-.21,2-.43,5.41,2.23,5.7s3.2-3.06,3.43-5.08l.17,0c-.14,2.08-.17,5.31,2.49,5.5s3.06-3,3.18-5.11h.17c0,2,.11,5.35,2.74,5.42a2.51,2.51,0,0,0,.94-.14,2.39,2.39,0,0,0,.87-.39c2.18-1.46.52-4.32-.58-6l.14-.11c1.21,1.7,3.26,4.21,5.42,2.62s.39-4.3-.84-6l.14-.11c1.27,1.58,3.52,4.13,5.61,2.46s.09-4.42-1.17-6l.13-.11c1.37,1.57,3.63,3.87,5.65,2.12s0-4.31-1.37-5.86l.13-.12c1.43,1.46,3.86,3.71,5.76,1.9a2.37,2.37,0,0,0,.57-.77,2.47,2.47,0,0,0,.35-.89c.5-2.58-2.7-3.42-4.69-3.85l0-.17c2.05.34,5.28.66,5.68-2s-2.76-3.31-4.82-3.63l0-.17c2,.22,5.41.43,5.7-2.23s-3.06-3.19-5.07-3.42a.91.91,0,0,1,0-.17c2.08.14,5.31.17,5.5-2.49s-3-3.07-5.11-3.18a1.09,1.09,0,0,1,0-.18c2,0,5.34-.1,5.41-2.73a2.48,2.48,0,0,0-.14-.94,2.67,2.67,0,0,0-.38-.88c-1.47-2.18-4.33-.51-6,.59l-.1-.14c1.69-1.21,4.2-3.27,2.61-5.42s-4.29-.4-6,.84a1.71,1.71,0,0,0-.11-.14c1.58-1.28,4.13-3.52,2.46-5.61s-4.42-.1-6,1.17l-.11-.13C898.4,3.14,900.7.87,899-1.14s-4.32,0-5.87,1.36A.69.69,0,0,1,893,.09c1.45-1.43,3.7-3.85,1.89-5.76a2.52,2.52,0,0,0-.77-.57,2.69,2.69,0,0,0-.88-.34c-2.58-.51-3.43,2.69-3.86,4.68l-.17,0c.34-2,.66-5.28-2-5.68s-3.31,2.76-3.63,4.82l-.17,0c.22-2,.43-5.41-2.23-5.71S878-5.46,877.75-3.44h-.17c.14-2.08.17-5.31-2.49-5.5s-3.06,3-3.18,5.11h-.18c0-2-.1-5.34-2.73-5.42a2.48,2.48,0,0,0-.94.14,2.71,2.71,0,0,0-.88.39c-2.18,1.47-.51,4.33.59,6l-.14.1c-1.21-1.69-3.26-4.21-5.42-2.62s-.4,4.3.84,6l-.14.1c-1.28-1.58-3.52-4.13-5.61-2.45s-.1,4.42,1.17,6l-.13.11C857,3,854.7.65,852.69,2.4s0,4.31,1.37,5.86l-.13.12c-1.43-1.45-3.86-3.7-5.77-1.9a2.78,2.78,0,0,0-.57.77,2.75,2.75,0,0,0-.34.89c-.51,2.58,2.69,3.42,4.69,3.86l0,.17c-2.06-.34-5.28-.67-5.69,2S849,17.47,851,17.78c0,.06,0,.12,0,.17C849,17.74,845.61,17.52,845.31,20.18ZM843,33.79c-.15-1.44-.34-2.87-.61-4.3a25.15,25.15,0,0,0-2.14-6.82l.22,0c1.61.27,2.88-1.25,3-2.74s-.75-3.25-2.38-3.33h-.22a25.39,25.39,0,0,0,3.58-6.19c.57-1.33,1.08-2.69,1.54-4.06.91-1.12,1.79-2.27,2.6-3.47A25.05,25.05,0,0,0,852-3.41a2,2,0,0,0,.12.19C853-1.89,855-2.06,856.18-3s1.77-2.82.68-4l-.16-.15A25.23,25.23,0,0,0,863.61-9c1.34-.53,2.66-1.14,4-1.78,1.43-.15,2.87-.34,4.29-.61a25.22,25.22,0,0,0,6.83-2.14,1.42,1.42,0,0,0-.05.22c-.28,1.61,1.25,2.88,2.73,3s3.25-.75,3.34-2.38a1.62,1.62,0,0,0,0-.22,25.45,25.45,0,0,0,6.2,3.58c1.33.57,2.68,1.08,4.05,1.54,1.13.91,2.28,1.79,3.48,2.6a25,25,0,0,0,6.33,3.32,1.88,1.88,0,0,0-.18.12c-1.34.94-1.16,2.92-.23,4.08s2.83,1.78,4,.68l.16-.15a24.72,24.72,0,0,0,1.85,6.9c.53,1.35,1.13,2.67,1.77,4,.15,1.44.35,2.88.62,4.3a25.3,25.3,0,0,0,2.13,6.83l-.21-.05c-1.61-.28-2.88,1.25-3.05,2.73s.74,3.25,2.37,3.34h.23a24.82,24.82,0,0,0-3.58,6.2c-.58,1.33-1.08,2.68-1.54,4-.91,1.13-1.79,2.28-2.61,3.48a25.31,25.31,0,0,0-3.32,6.33l-.11-.19c-.94-1.33-2.92-1.15-4.09-.22s-1.77,2.83-.68,4c0,.06.11.1.16.15a25.15,25.15,0,0,0-6.91,1.86c-1.35.53-2.66,1.13-4,1.77-1.44.15-2.87.35-4.29.62a24.74,24.74,0,0,0-6.83,2.13,1.6,1.6,0,0,0,0-.21c.27-1.61-1.25-2.89-2.73-3.05s-3.26.74-3.34,2.37v.23a24.76,24.76,0,0,0-6.19-3.58c-1.33-.58-2.69-1.08-4.06-1.55-1.12-.91-2.27-1.78-3.47-2.6a25.38,25.38,0,0,0-6.34-3.32,1.18,1.18,0,0,0,.19-.11c1.33-1,1.16-2.92.22-4.09s-2.82-1.77-4-.68l-.16.16a24.69,24.69,0,0,0-1.85-6.91C844.26,36.4,843.66,35.09,843,33.79Zm6.43-1.86c-.77-.18-1.83-.39-2.21.21a.37.37,0,0,0-.12.29.47.47,0,0,0,0,.17.4.4,0,0,0,.09.15.37.37,0,0,0,.25.18C848.1,33.23,848.88,32.49,849.44,31.93Zm14,17.52c-.67.41-1.57,1-1.41,1.71a.33.33,0,0,0,.12.28.33.33,0,0,0,.13.11.25.25,0,0,0,.16.05.34.34,0,0,0,.31-.05C863.43,51.32,863.46,50.23,863.46,49.45Zm22.3,2.47c-.18.77-.39,1.83.21,2.21a.36.36,0,0,0,.29.11.32.32,0,0,0,.17,0,.37.37,0,0,0,.15-.08.35.35,0,0,0,.18-.25C887.06,53.26,886.32,52.47,885.76,51.92Zm17.52-14c.42.66,1,1.57,1.71,1.41a.33.33,0,0,0,.28-.12.47.47,0,0,0,.12-.13.42.42,0,0,0,0-.16.36.36,0,0,0,0-.31C905.15,37.92,904.06,37.9,903.28,37.9Zm2.47-22.3c.77.17,1.83.38,2.21-.21a.37.37,0,0,0,.11-.3.29.29,0,0,0,0-.16.37.37,0,0,0-.08-.15.36.36,0,0,0-.25-.19C907.09,14.29,906.3,15,905.75,15.6Zm-14-17.52c.67-.42,1.57-1,1.41-1.71a.35.35,0,0,0-.12-.29.33.33,0,0,0-.13-.11.38.38,0,0,0-.16,0,.36.36,0,0,0-.31,0C891.75-3.79,891.73-2.71,891.73-1.92Zm-22.3-2.47c.17-.77.39-1.84-.21-2.21a.37.37,0,0,0-.29-.12.46.46,0,0,0-.17,0,.55.55,0,0,0-.15.08.34.34,0,0,0-.18.26C868.12-5.73,868.87-4.95,869.43-4.39Zm-17.52,14c-.42-.67-1-1.57-1.71-1.42a.39.39,0,0,0-.29.13.43.43,0,0,0-.16.29.37.37,0,0,0,0,.31C850,9.6,851.12,9.63,851.91,9.63ZM846.09,32.9a1.88,1.88,0,0,1-.05-.33c-.13-2,2.41-2.05,3.9-2,0,.42,0,.84,0,1.26l.71,1.05c-1.25.81-3.44,2.1-4.39.37A2.58,2.58,0,0,1,846.09,32.9Zm15.69,19.6a2.34,2.34,0,0,1-.27-.2c-1.49-1.31.25-3.15,1.32-4.2.28.31.57.62.86.92l1.24.24c-.31,1.46-.94,3.92-2.84,3.36A1.43,1.43,0,0,1,861.78,52.5Zm25,2.76a1.61,1.61,0,0,1-.33.06c-2,.12-2-2.41-2-3.91l1.26,0,1-.71c.81,1.26,2.1,3.44.37,4.39A1.58,1.58,0,0,1,886.73,55.26Zm19.6-15.68a2.34,2.34,0,0,1-.2.27c-1.3,1.49-3.15-.26-4.2-1.32l.92-.86.24-1.25c1.46.32,3.92.95,3.36,2.85A1.66,1.66,0,0,1,906.33,39.58Zm2.77-24.95a2.88,2.88,0,0,1,0,.33c.13,2-2.41,2.05-3.91,2,0-.42,0-.84,0-1.26l-.72-1c1.26-.81,3.44-2.11,4.39-.37A2.12,2.12,0,0,1,909.1,14.63ZM893.41-5a2.22,2.22,0,0,1,.27.19c1.49,1.31-.25,3.16-1.32,4.21l-.86-.93-1.25-.23c.32-1.46,1-3.92,2.85-3.37ZM868.46-7.74a1.63,1.63,0,0,1,.33,0c2-.13,2.05,2.41,2,3.9l-1.27,0-1,.71c-.81-1.25-2.11-3.44-.37-4.39A2,2,0,0,1,868.46-7.74ZM848.86,8a1.31,1.31,0,0,1,.19-.27c1.31-1.49,3.16.25,4.21,1.32l-.93.86c-.08.41-.16.83-.23,1.24-1.46-.31-3.92-.94-3.37-2.84A1.81,1.81,0,0,1,848.86,8Z" transform="translate(5.49 24.58)" style="fill:#f0b04c"/><rect x="154.09" y="115.75" width="34.83" height="34.83" rx="2.87" style="fill:url(#åçûìßííûé_ãðàäèåíò_21-5)"/><rect x="258.59" y="115.75" width="34.83" height="34.83" rx="2.87" style="fill:url(#åçûìßííûé_ãðàäèåíò_151)"/><rect x="188.92" y="115.75" width="34.83" height="34.83" rx="2.87" style="fill:url(#åçûìßííûé_ãðàäèåíò_12)"/><rect x="223.75" y="115.75" width="34.83" height="34.83" rx="2.87" style="fill:url(#åçûìßííûé_ãðàäèåíò_29)"/><path d="M53.93,24.63c-4.41,5.28-7.24,12-9,18.79,6,3.51,12.81,6.29,19.67,6.91C65.2,57.19,68,64,71.49,70c6.75-1.78,13.51-4.61,18.8-9,5.28,4.41,12,7.24,18.79,9,3.51-6,6.29-12.81,6.91-19.67,6.86-.62,13.64-3.4,19.67-6.91-1.78-6.75-4.61-13.51-9-18.79,4.41-5.29,7.24-12,9-18.8-6-3.51-12.81-6.29-19.67-6.91-.62-6.86-3.4-13.64-6.91-19.67-6.75,1.78-13.51,4.61-18.79,9-5.29-4.41-12.05-7.24-18.8-9C68-14.72,65.2-7.94,64.58-1.08c-6.86.62-13.64,3.4-19.67,6.91C46.69,12.58,49.52,19.34,53.93,24.63ZM48.07,42.11c1.91-6.46,4.72-12.73,9.14-17.48-4.42-4.76-7.23-11-9.14-17.49C54,3.92,60.41,1.48,66.9,1.24c.24-6.49,2.68-12.92,5.9-18.83,6.46,1.91,12.73,4.72,17.49,9.14,4.75-4.42,11-7.23,17.48-9.14,3.22,5.91,5.66,12.34,5.9,18.83,6.49.24,12.92,2.68,18.83,5.9-1.91,6.46-4.72,12.73-9.14,17.49,4.42,4.75,7.23,11,9.14,17.48-5.91,3.22-12.34,5.67-18.83,5.9-.24,6.49-2.68,12.92-5.9,18.84C101.31,64.93,95,62.12,90.29,57.7c-4.76,4.42-11,7.23-17.49,9.15C69.58,60.93,67.14,54.5,66.9,48,60.41,47.78,54,45.33,48.07,42.11Zm6-15.67a44.66,44.66,0,0,0-6,11.4A43.1,43.1,0,0,1,54.08,26.44ZM66,51.51a44.34,44.34,0,0,0,3.81,12.31A42.81,42.81,0,0,1,66,51.51ZM92.1,60.83a45,45,0,0,0,11.4,6A43.42,43.42,0,0,1,92.1,60.83Zm25.07-11.89a44.34,44.34,0,0,0,12.31-3.81A42.81,42.81,0,0,1,117.17,48.94Zm9.32-26.13a44.66,44.66,0,0,0,6-11.4A43,43,0,0,1,126.49,22.81ZM114.6-2.26a44.45,44.45,0,0,0-3.81-12.31A42.81,42.81,0,0,1,114.6-2.26ZM88.47-11.58a44.66,44.66,0,0,0-11.4-6A43.1,43.1,0,0,1,88.47-11.58ZM63.4.31A44.68,44.68,0,0,0,51.09,4.12,42.81,42.81,0,0,1,63.4.31ZM48.07,11.41a44.66,44.66,0,0,0,6,11.4A43,43,0,0,1,48.07,11.41Zm3,33.72A44.34,44.34,0,0,0,63.4,48.94,42.81,42.81,0,0,1,51.09,45.13Zm26,21.72a45,45,0,0,0,11.4-6A43.42,43.42,0,0,1,77.07,66.85Zm33.72-3a44.34,44.34,0,0,0,3.81-12.31A42.81,42.81,0,0,1,110.79,63.82Zm21.71-26a44.66,44.66,0,0,0-6-11.4A43.1,43.1,0,0,1,132.5,37.84Zm-3-33.72A44.68,44.68,0,0,0,117.17.31,42.81,42.81,0,0,1,129.48,4.12Zm-26-21.71a44.66,44.66,0,0,0-11.4,6A43.1,43.1,0,0,1,103.5-17.59Zm-33.72,3A44.45,44.45,0,0,0,66-2.26,42.81,42.81,0,0,1,69.78-14.57ZM47.93,38.22l-.18.5Zm22,26c.07.16.15.32.23.48C70.1,64.51,70,64.35,70,64.19ZM103.88,67l.5.18Zm26-22,.48-.24ZM132.64,11l.18-.5Zm-22-26-.24-.49Zm-33.94-2.8-.5-.18Zm-26,22-.48.23Zm-3,6.24.18.5Zm2.49,34.2.48.24ZM76.19,67.16l.5-.18Zm34.2-2.49.24-.48Zm22.43-25.95-.18-.5Zm-2.49-34.2-.48-.23Zm-26-22.43-.5.18Zm-34.2,2.49c-.08.16-.16.32-.23.49C70-15.1,70.1-15.26,70.18-15.42ZM47.41,39.72v0ZM70.64,65.61l0,0Zm34.74,1.89h0Zm25.89-23.23,0,0Zm1.89-34.74v0ZM109.93-16.36l0,0ZM75.19-18.25h0ZM49.3,5l0,0ZM47.4,9.49v0Zm1.86,34.76,0,0ZM75.15,67.51h0Zm34.76-1.86,0,0Zm23.26-25.89v0ZM131.31,5l0,0ZM105.42-18.26h0ZM70.66-16.4l0,0Z" transform="translate(5.49 24.58)" style="fill:url(#åçûìßííûé_ãðàäèåíò_21-6)"/><path d="M74.32,24.63c-1,2.55-1.89,5.14-2.74,7.75C74,33.62,76.5,34.8,79,35.92q1.66,3.75,3.54,7.41c2.6-.85,5.19-1.76,7.75-2.74,2.55,1,5.14,1.89,7.74,2.74q1.88-3.66,3.54-7.41,3.77-1.68,7.42-3.54c-.85-2.61-1.76-5.2-2.74-7.75,1-2.56,1.89-5.15,2.74-7.75q-3.66-1.87-7.42-3.54c-1.11-2.5-2.29-5-3.54-7.42-2.6.85-5.19,1.76-7.74,2.74-2.56-1-5.15-1.89-7.75-2.74-1.25,2.44-2.43,4.92-3.54,7.42-2.5,1.11-5,2.29-7.42,3.54C72.43,19.48,73.34,22.07,74.32,24.63Zm4.1-4.92c-.38-1-.68-2.05-1-3.07L80,15.48c.18,2.1.6,4.33,2.2,5.79-2.17-.09-4,1.18-5.66,2.54-.33-.87-.65-1.74-1-2.62C76.49,20.68,77.44,20.15,78.42,19.71Zm7-7c.44-1,1-1.93,1.48-2.86l2.62,1c-1.36,1.62-2.63,3.5-2.54,5.66-1.46-1.6-3.69-2-5.79-2.2.38-.85.77-1.7,1.16-2.55C83.32,12.08,84.36,12.38,85.37,12.76Zm9.83,0c1-.38,2-.68,3.07-1,.39.85.78,1.7,1.16,2.55-2.1.18-4.33.6-5.79,2.2.09-2.16-1.18-4-2.54-5.66l2.62-1C94.23,10.83,94.76,11.78,95.2,12.76Zm7,7c1,.44,1.93,1,2.86,1.48-.32.88-.64,1.75-1,2.62-1.62-1.36-3.49-2.63-5.66-2.54,1.6-1.46,2-3.69,2.2-5.79.86.38,1.7.77,2.55,1.16C102.83,17.66,102.53,18.71,102.15,19.71Zm0,9.83c.38,1,.68,2.05,1,3.07l-2.55,1.17c-.18-2.11-.6-4.34-2.2-5.8,2.17.09,4-1.18,5.66-2.54.33.87.65,1.75,1,2.62C104.08,28.57,103.13,29.1,102.15,29.54Zm-7,7c-.44,1-1,1.93-1.48,2.86l-2.62-1c1.36-1.62,2.63-3.49,2.54-5.66,1.46,1.6,3.69,2,5.79,2.2-.38.86-.77,1.7-1.16,2.55C97.25,37.17,96.21,36.87,95.2,36.49Zm-9.83,0c-1,.38-2.05.68-3.07,1-.39-.85-.78-1.69-1.16-2.55,2.1-.18,4.33-.6,5.79-2.2-.09,2.17,1.18,4,2.54,5.66l-2.62,1C86.34,38.42,85.81,37.47,85.37,36.49Zm-7-7c-1-.44-1.93-1-2.86-1.48.32-.87.64-1.75,1-2.62C78.15,26.8,80,28.07,82.19,28c-1.6,1.46-2,3.69-2.2,5.8l-2.55-1.17C77.74,31.59,78,30.55,78.42,29.54Zm5.44-4.91c-1.25,1.67-3.68,1.07-5.41,0C80.18,23.55,82.61,23,83.86,24.63Zm1.88-4.55c-2.07.3-3.36-1.84-3.82-3.82C83.9,16.72,86,18,85.74,20.08Zm4.55-1.88c-1.68-1.25-1.08-3.68,0-5.41C91.36,14.52,92,17,90.29,18.2Zm4.54,1.88c-.3-2.07,1.84-3.36,3.82-3.82C98.19,18.24,96.9,20.38,94.83,20.08Zm1.88,4.55c1.25-1.68,3.68-1.08,5.41,0C100.39,25.7,98,26.3,96.71,24.63Zm-1.88,4.54c2.07-.3,3.36,1.84,3.82,3.83C96.67,32.54,94.53,31.24,94.83,29.17Zm-4.54,1.88c1.67,1.25,1.07,3.68,0,5.41C89.21,34.73,88.61,32.3,90.29,31.05Zm-4.55-1.88c.3,2.07-1.84,3.37-3.82,3.83C82.38,31,83.67,28.87,85.74,29.17Zm-11.26,2,.41-1.2a10.92,10.92,0,0,0,.93.65,9,9,0,0,0-.2,1.11Zm0-13.09,1.14-.56a9.1,9.1,0,0,0,.2,1.12,9,9,0,0,0-.93.64Zm9.26-9.26,1.2.41a10.92,10.92,0,0,0-.65.93,9,9,0,0,0-1.11-.2C83.36,9.58,83.55,9.2,83.74,8.82Zm13.09,0c.19.38.38.76.56,1.14a9,9,0,0,0-1.11.2,10.92,10.92,0,0,0-.65-.93Zm9.26,9.26c-.13.4-.27.8-.41,1.2a9,9,0,0,0-.93-.64,9.1,9.1,0,0,0,.2-1.12Zm0,13.09-1.14.56a9,9,0,0,0-.2-1.11,10.92,10.92,0,0,0,.93-.65C105.82,30.37,106,30.77,106.09,31.17Zm-9.26,9.26L95.63,40a10.92,10.92,0,0,0,.65-.93,9,9,0,0,0,1.11.2C97.21,39.67,97,40.05,96.83,40.43Zm-13.09,0c-.19-.38-.38-.76-.56-1.14a9,9,0,0,0,1.11-.2,10.92,10.92,0,0,0,.65.93ZM85.27,26.7A4.58,4.58,0,0,0,86.54,25c0-.12.09-.24.13-.36s-.08-.25-.13-.37a4.66,4.66,0,0,0-1.27-1.71,4.71,4.71,0,0,0,2.11-.32l.35-.16c.06-.12.11-.23.16-.35a4.71,4.71,0,0,0,.32-2.11,4.58,4.58,0,0,0,1.71,1.27l.37.13.36-.13a4.58,4.58,0,0,0,1.71-1.27,4.71,4.71,0,0,0,.32,2.11c0,.12.1.23.16.35l.35.16a4.71,4.71,0,0,0,2.11.32A4.66,4.66,0,0,0,94,24.26c0,.12-.09.24-.13.37L94,25A4.58,4.58,0,0,0,95.3,26.7a4.71,4.71,0,0,0-2.11.32l-.35.16c-.06.12-.11.24-.16.35a4.71,4.71,0,0,0-.32,2.11,4.58,4.58,0,0,0-1.71-1.27l-.36-.13-.37.13a4.58,4.58,0,0,0-1.71,1.27,4.71,4.71,0,0,0-.32-2.11c0-.11-.1-.23-.16-.35L87.38,27A4.71,4.71,0,0,0,85.27,26.7Zm4-2.07c0,.15-.09.31-.14.46l.43.24.24.43.47-.14.46.14.24-.43.43-.24c0-.15-.1-.31-.14-.46s.09-.32.14-.47L91,23.92l-.24-.43-.46.14-.47-.14-.24.43-.43.24C89.2,24.31,89.25,24.47,89.29,24.63Z" transform="translate(5.49 24.58)" style="fill:url(#åçûìßííûé_ãðàäèåíò_21-7)"/><path d="M61.73,24.63c-4.25,4.24-7.19,9.8-9.2,15.64a40.74,40.74,0,0,0,17.56,4.55,40.57,40.57,0,0,0,4.56,17.56,40.68,40.68,0,0,0,15.64-9.2c4.24,4.25,9.8,7.19,15.64,9.2a40.7,40.7,0,0,0,4.55-17.56A40.7,40.7,0,0,0,128,40.27c-2-5.84-4.95-11.4-9.2-15.64A40.68,40.68,0,0,0,128,9a40.57,40.57,0,0,0-17.56-4.56,40.74,40.74,0,0,0-4.55-17.56c-5.84,2-11.4,5-15.64,9.2a40.68,40.68,0,0,0-15.64-9.2A40.61,40.61,0,0,0,70.09,4.43,40.61,40.61,0,0,0,52.53,9,40.68,40.68,0,0,0,61.73,24.63ZM67.58,34q1.47-4.76,3.22-9.4Q69.06,20,67.58,15.22q4.4-2.31,8.93-4.37,2.05-4.53,4.37-8.93,4.75,1.47,9.41,3.22,4.65-1.74,9.4-3.22,2.31,4.39,4.37,8.93,4.53,2.06,8.93,4.37-1.47,4.76-3.22,9.41,1.74,4.65,3.22,9.4-4.39,2.31-8.93,4.37-2.06,4.53-4.37,8.93-4.75-1.47-9.4-3.22-4.67,1.74-9.41,3.22-2.31-4.39-4.37-8.93Q72,36.35,67.58,34ZM61,36.76a2.53,2.53,0,0,1-1-2.87c.77-2.54,4-1.83,6.16-1.19-.22.7-.43,1.41-.64,2.11-1.15-.64-3.16-1.81-3.88-.56a.58.58,0,0,0-.09.32h0v.08c0,.7.66,1.07,1.46,1.28-.42.71-.62,1.44-.12,1.94l0,0h0a.79.79,0,0,0,.3.17c1.39.37,2-1.88,2.34-3.15l1.95,1c-1.08,2-2.85,4.76-5.2,3.5A2.5,2.5,0,0,1,61,36.76Zm0-24.27a2.5,2.5,0,0,1,1.3-2.75c2.35-1.26,4.12,1.53,5.2,3.5l-1.95,1c-.36-1.27-1-3.52-2.34-3.15a.79.79,0,0,0-.3.17h0s0,0,0,0c-.5.5-.3,1.23.12,1.94-.8.21-1.45.58-1.46,1.29v.07h0a.58.58,0,0,0,.09.32c.72,1.25,2.73.08,3.88-.56.21.71.42,1.41.64,2.12-2.16.63-5.39,1.34-6.16-1.2A2.53,2.53,0,0,1,61,12.49ZM78.15-4.67A2.53,2.53,0,0,1,81-5.7c2.54.77,1.83,4,1.2,6.16L80.1-.18c.64-1.15,1.81-3.16.56-3.88a.58.58,0,0,0-.32-.09h-.08c-.71,0-1.08.66-1.29,1.46-.71-.42-1.44-.62-1.94-.12l0,.05h0a.79.79,0,0,0-.17.3c-.37,1.39,1.88,2,3.15,2.34l-1,2c-2-1.08-4.76-2.85-3.5-5.2A2.5,2.5,0,0,1,78.15-4.67Zm24.27,0a2.5,2.5,0,0,1,2.75,1.3c1.26,2.35-1.53,4.12-3.5,5.2-.34-.65-.7-1.3-1-1.95,1.27-.36,3.52-.95,3.15-2.34a.79.79,0,0,0-.17-.3h0l0-.05c-.5-.5-1.23-.3-1.94.12-.21-.8-.58-1.45-1.29-1.46h-.08a.58.58,0,0,0-.32.09c-1.25.72-.08,2.73.56,3.88L98.36.46C97.72-1.7,97-4.93,99.55-5.7A2.53,2.53,0,0,1,102.42-4.67Zm17.16,17.16a2.52,2.52,0,0,1,1,2.87c-.77,2.54-4,1.83-6.16,1.2.22-.71.43-1.41.64-2.12,1.15.64,3.17,1.81,3.88.56a.58.58,0,0,0,.09-.32h0V14.6c0-.71-.66-1.08-1.46-1.29.42-.71.62-1.44.12-1.94l0,0h0a.79.79,0,0,0-.3-.17c-1.38-.37-2,1.88-2.34,3.15l-2-1c1.08-2,2.85-4.76,5.2-3.5A2.5,2.5,0,0,1,119.58,12.49Zm0,24.27a2.5,2.5,0,0,1-1.3,2.75c-2.35,1.26-4.12-1.53-5.2-3.5.65-.34,1.3-.7,2-1,.36,1.27,1,3.52,2.34,3.15a.79.79,0,0,0,.3-.17h0l0,0c.5-.5.3-1.23-.12-1.94.8-.21,1.46-.58,1.46-1.28v-.08h0a.58.58,0,0,0-.09-.32c-.71-1.25-2.73-.08-3.88.56-.21-.7-.42-1.41-.64-2.11,2.16-.64,5.39-1.35,6.16,1.19A2.52,2.52,0,0,1,119.58,36.76ZM102.42,53.92a2.52,2.52,0,0,1-2.87,1c-2.54-.77-1.83-4-1.19-6.16l2.11.64c-.64,1.16-1.81,3.17-.56,3.88a.58.58,0,0,0,.32.09h.08c.71,0,1.08-.66,1.29-1.46.71.42,1.44.62,1.94.12l0,0h0a.79.79,0,0,0,.17-.3c.37-1.38-1.88-2-3.15-2.34.35-.65.71-1.3,1-1.95,2,1.08,4.76,2.85,3.5,5.2A2.5,2.5,0,0,1,102.42,53.92Zm-24.27,0a2.5,2.5,0,0,1-2.75-1.3c-1.26-2.35,1.53-4.12,3.5-5.2l1,1.95c-1.27.36-3.52,1-3.15,2.34A.79.79,0,0,0,77,52h0l0,0c.5.5,1.23.3,1.94-.12.21.8.58,1.46,1.29,1.46h.08a.58.58,0,0,0,.32-.09c1.25-.71.08-2.72-.56-3.88l2.12-.64C82.85,51,83.56,54.18,81,55A2.52,2.52,0,0,1,78.15,53.92ZM54.6,39.41c2-5.61,4.91-10.89,9.11-14.78-4.2-3.9-7.07-9.18-9.11-14.78,5.41-2.53,11.17-4.23,16.89-4C71.28.11,73-5.65,75.5-11.06c5.61,2,10.89,4.91,14.79,9.11,3.89-4.2,9.17-7.07,14.78-9.11,2.52,5.41,4.22,11.17,4,16.89,5.72-.21,11.49,1.49,16.89,4-2,5.6-4.91,10.88-9.11,14.78,4.2,3.89,7.07,9.17,9.11,14.78-5.4,2.52-11.17,4.22-16.89,4,.21,5.72-1.49,11.49-4,16.89-5.61-2-10.89-4.91-14.78-9.11-3.9,4.2-9.18,7.07-14.79,9.11-2.52-5.4-4.22-11.17-4-16.89C65.77,43.63,60,41.93,54.6,39.41ZM68.83,24.63Q67.61,28,66.54,31.37c-3-.87-7.63-1.84-8.74,1.9a3.7,3.7,0,0,0,1.51,4.19,3.7,3.7,0,0,0,1.89,4c3.43,1.85,6-2.11,7.53-4.84,2.11,1.08,4.23,2.14,6.39,3.14q1.51,3.24,3.14,6.39c-2.73,1.51-6.69,4.11-4.83,7.53a3.68,3.68,0,0,0,4,1.89,3.7,3.7,0,0,0,4.19,1.51c3.74-1.1,2.77-5.74,1.9-8.74q3.39-1.08,6.75-2.29Q93.64,47.3,97,48.37c-.87,3-1.84,7.64,1.9,8.74a3.7,3.7,0,0,0,4.19-1.51,3.68,3.68,0,0,0,4-1.89c1.86-3.42-2.1-6-4.83-7.53,1.08-2.1,2.14-4.23,3.14-6.39,2.16-1,4.29-2.06,6.39-3.14,1.51,2.73,4.1,6.69,7.53,4.84a3.7,3.7,0,0,0,1.89-4,3.7,3.7,0,0,0,1.51-4.19c-1.11-3.74-5.74-2.77-8.74-1.9Q113,28,111.74,24.63,113,21.27,114,17.88c3,.87,7.63,1.84,8.74-1.9a3.7,3.7,0,0,0-1.51-4.19,3.68,3.68,0,0,0-1.89-4c-3.43-1.86-6,2.1-7.53,4.83q-3.15-1.62-6.39-3.14c-1-2.16-2.06-4.28-3.14-6.39C105,1.56,109-1,107.14-4.46a3.68,3.68,0,0,0-4-1.89,3.7,3.7,0,0,0-4.19-1.51C95.19-6.75,96.16-2.12,97,.88Q93.64,2,90.29,3.17,86.93,2,83.54.88c.87-3,1.84-7.63-1.9-8.74a3.7,3.7,0,0,0-4.19,1.51,3.68,3.68,0,0,0-4,1.89c-1.86,3.43,2.1,6,4.83,7.53-1.08,2.11-2.13,4.23-3.14,6.39-2.16,1-4.28,2.06-6.39,3.14-1.51-2.73-4.1-6.69-7.53-4.83a3.68,3.68,0,0,0-1.89,4A3.7,3.7,0,0,0,57.8,16c1.11,3.74,5.74,2.77,8.74,1.9Q67.62,21.27,68.83,24.63Z" transform="translate(5.49 24.58)" style="fill:url(#åçûìßííûé_ãðàäèåíò_21-8)"/><path d="M55.93,23.63c-4.41,5.28-7.24,12-9,18.79,6,3.51,12.81,6.29,19.67,6.91C67.2,56.19,70,63,73.49,69c6.75-1.78,13.51-4.61,18.8-9,5.28,4.41,12,7.24,18.79,9,3.51-6,6.29-12.81,6.91-19.67,6.86-.62,13.64-3.4,19.67-6.91-1.78-6.75-4.61-13.51-9-18.79,4.41-5.29,7.24-12,9-18.8-6-3.51-12.81-6.29-19.67-6.91-.62-6.86-3.4-13.64-6.91-19.67-6.75,1.78-13.51,4.61-18.79,9-5.29-4.41-12.05-7.24-18.8-9C70-15.72,67.2-8.94,66.58-2.08c-6.86.62-13.64,3.4-19.67,6.91C48.69,11.58,51.52,18.34,55.93,23.63ZM50.07,41.11c1.91-6.46,4.72-12.73,9.14-17.48-4.42-4.76-7.23-11-9.14-17.49C56,2.92,62.41.48,68.9.24c.24-6.49,2.68-12.92,5.9-18.83,6.46,1.91,12.73,4.72,17.49,9.14,4.75-4.42,11-7.23,17.48-9.14,3.22,5.91,5.66,12.34,5.9,18.83,6.49.24,12.92,2.68,18.83,5.9-1.91,6.46-4.72,12.73-9.14,17.49,4.42,4.75,7.23,11,9.14,17.48-5.91,3.22-12.34,5.67-18.83,5.9-.24,6.49-2.68,12.92-5.9,18.84C103.31,63.93,97,61.12,92.29,56.7c-4.76,4.42-11,7.23-17.49,9.15C71.58,59.93,69.14,53.5,68.9,47,62.41,46.78,56,44.33,50.07,41.11Zm6-15.67a44.66,44.66,0,0,0-6,11.4A43.1,43.1,0,0,1,56.08,25.44ZM68,50.51a44.34,44.34,0,0,0,3.81,12.31A42.81,42.81,0,0,1,68,50.51ZM94.1,59.83a45,45,0,0,0,11.4,6A43.42,43.42,0,0,1,94.1,59.83Zm25.07-11.89a44.34,44.34,0,0,0,12.31-3.81A42.81,42.81,0,0,1,119.17,47.94Zm9.32-26.13a44.66,44.66,0,0,0,6-11.4A43,43,0,0,1,128.49,21.81ZM116.6-3.26a44.45,44.45,0,0,0-3.81-12.31A42.81,42.81,0,0,1,116.6-3.26ZM90.47-12.58a44.66,44.66,0,0,0-11.4-6A43.1,43.1,0,0,1,90.47-12.58ZM65.4-.69A44.68,44.68,0,0,0,53.09,3.12,42.81,42.81,0,0,1,65.4-.69ZM50.07,10.41a44.66,44.66,0,0,0,6,11.4A43,43,0,0,1,50.07,10.41Zm3,33.72A44.34,44.34,0,0,0,65.4,47.94,42.81,42.81,0,0,1,53.09,44.13Zm26,21.72a45,45,0,0,0,11.4-6A43.42,43.42,0,0,1,79.07,65.85Zm33.72-3a44.34,44.34,0,0,0,3.81-12.31A42.81,42.81,0,0,1,112.79,62.82Zm21.71-26a44.66,44.66,0,0,0-6-11.4A43.1,43.1,0,0,1,134.5,36.84Zm-3-33.72A44.68,44.68,0,0,0,119.17-.69,42.81,42.81,0,0,1,131.48,3.12Zm-26-21.71a44.66,44.66,0,0,0-11.4,6A43.1,43.1,0,0,1,105.5-18.59Zm-33.72,3A44.45,44.45,0,0,0,68-3.26,42.81,42.81,0,0,1,71.78-15.57ZM49.93,37.22l-.18.5Zm22,26c.07.16.15.32.23.48C72.1,63.51,72,63.35,72,63.19ZM105.88,66l.5.18Zm26-22,.48-.24ZM134.64,10l.18-.5Zm-22-26-.24-.49Zm-33.94-2.8-.5-.18Zm-26,22-.48.23Zm-3,6.24.18.5Zm2.49,34.2.48.24ZM78.19,66.16l.5-.18Zm34.2-2.49.24-.48Zm22.43-25.95-.18-.5Zm-2.49-34.2-.48-.23Zm-26-22.43-.5.18Zm-34.2,2.49c-.08.16-.16.32-.23.49C72-16.1,72.1-16.26,72.18-16.42ZM49.41,38.72v0ZM72.64,64.61l0,0Zm34.74,1.89h0Zm25.89-23.23,0,0Zm1.89-34.74v0ZM111.93-17.36l0,0ZM77.19-19.25h0ZM51.3,4l0,0ZM49.4,8.49v0Zm1.86,34.76,0,0ZM77.15,66.51h0Zm34.76-1.86,0,0Zm23.26-25.89v0ZM133.31,4l0,0ZM107.42-19.26h0ZM72.66-17.4l0,0Z" transform="translate(5.49 24.58)" style="fill:#f0b04c"/><path d="M76.32,23.63c-1,2.55-1.89,5.14-2.74,7.75C76,32.62,78.5,33.8,81,34.92q1.66,3.75,3.54,7.41c2.6-.85,5.19-1.76,7.75-2.74,2.55,1,5.14,1.89,7.74,2.74q1.88-3.66,3.54-7.41,3.77-1.68,7.42-3.54c-.85-2.61-1.76-5.2-2.74-7.75,1-2.56,1.89-5.15,2.74-7.75q-3.66-1.87-7.42-3.54c-1.11-2.5-2.29-5-3.54-7.42-2.6.85-5.19,1.76-7.74,2.74-2.56-1-5.15-1.89-7.75-2.74C83.29,7.36,82.11,9.84,81,12.34c-2.5,1.11-5,2.29-7.42,3.54C74.43,18.48,75.34,21.07,76.32,23.63Zm4.1-4.92c-.38-1-.68-2.05-1-3.07L82,14.48c.18,2.1.6,4.33,2.2,5.79-2.17-.09-4,1.18-5.66,2.54-.33-.87-.65-1.74-1-2.62C78.49,19.68,79.44,19.15,80.42,18.71Zm7-7c.44-1,1-1.93,1.48-2.86l2.62,1c-1.36,1.62-2.63,3.5-2.54,5.66-1.46-1.6-3.69-2-5.79-2.2.38-.85.77-1.7,1.16-2.55C85.32,11.08,86.36,11.38,87.37,11.76Zm9.83,0c1-.38,2-.68,3.07-1,.39.85.78,1.7,1.16,2.55-2.1.18-4.33.6-5.79,2.2.09-2.16-1.18-4-2.54-5.66l2.62-1C96.23,9.83,96.76,10.78,97.2,11.76Zm7,7c1,.44,1.93,1,2.86,1.48-.32.88-.64,1.75-1,2.62-1.62-1.36-3.49-2.63-5.66-2.54,1.6-1.46,2-3.69,2.2-5.79.86.38,1.7.77,2.55,1.16C104.83,16.66,104.53,17.71,104.15,18.71Zm0,9.83c.38,1,.68,2.05,1,3.07l-2.55,1.17c-.18-2.11-.6-4.34-2.2-5.8,2.17.09,4-1.18,5.66-2.54.33.87.65,1.75,1,2.62C106.08,27.57,105.13,28.1,104.15,28.54Zm-7,7c-.44,1-1,1.93-1.48,2.86l-2.62-1c1.36-1.62,2.63-3.49,2.54-5.66,1.46,1.6,3.69,2,5.79,2.2-.38.86-.77,1.7-1.16,2.55C99.25,36.17,98.21,35.87,97.2,35.49Zm-9.83,0c-1,.38-2.05.68-3.07,1-.39-.85-.78-1.69-1.16-2.55,2.1-.18,4.33-.6,5.79-2.2-.09,2.17,1.18,4,2.54,5.66l-2.62,1C88.34,37.42,87.81,36.47,87.37,35.49Zm-7-7c-1-.44-1.93-1-2.86-1.48.32-.87.64-1.75,1-2.62C80.15,25.8,82,27.07,84.19,27c-1.6,1.46-2,3.69-2.2,5.8l-2.55-1.17C79.74,30.59,80,29.55,80.42,28.54Zm5.44-4.91c-1.25,1.67-3.68,1.07-5.41,0C82.18,22.55,84.61,22,85.86,23.63Zm1.88-4.55c-2.07.3-3.36-1.84-3.82-3.82C85.9,15.72,88,17,87.74,19.08Zm4.55-1.88c-1.68-1.25-1.08-3.68,0-5.41C93.36,13.52,94,16,92.29,17.2Zm4.54,1.88c-.3-2.07,1.84-3.36,3.82-3.82C100.19,17.24,98.9,19.38,96.83,19.08Zm1.88,4.55c1.25-1.68,3.68-1.08,5.41,0C102.39,24.7,100,25.3,98.71,23.63Zm-1.88,4.54c2.07-.3,3.36,1.84,3.82,3.83C98.67,31.54,96.53,30.24,96.83,28.17Zm-4.54,1.88c1.67,1.25,1.07,3.68,0,5.41C91.21,33.73,90.61,31.3,92.29,30.05Zm-4.55-1.88c.3,2.07-1.84,3.37-3.82,3.83C84.38,30,85.67,27.87,87.74,28.17Zm-11.26,2,.41-1.2a10.92,10.92,0,0,0,.93.65,9,9,0,0,0-.2,1.11Zm0-13.09,1.14-.56a9.1,9.1,0,0,0,.2,1.12,9,9,0,0,0-.93.64Zm9.26-9.26,1.2.41a10.92,10.92,0,0,0-.65.93A9,9,0,0,0,85.18,9C85.36,8.58,85.55,8.2,85.74,7.82Zm13.09,0c.19.38.38.76.56,1.14a9,9,0,0,0-1.11.2,10.92,10.92,0,0,0-.65-.93Zm9.26,9.26c-.13.4-.27.8-.41,1.2a9,9,0,0,0-.93-.64,9.1,9.1,0,0,0,.2-1.12Zm0,13.09-1.14.56a9,9,0,0,0-.2-1.11,10.92,10.92,0,0,0,.93-.65C107.82,29.37,108,29.77,108.09,30.17Zm-9.26,9.26L97.63,39a10.92,10.92,0,0,0,.65-.93,9,9,0,0,0,1.11.2C99.21,38.67,99,39.05,98.83,39.43Zm-13.09,0c-.19-.38-.38-.76-.56-1.14a9,9,0,0,0,1.11-.2,10.92,10.92,0,0,0,.65.93ZM87.27,25.7A4.58,4.58,0,0,0,88.54,24c0-.12.09-.24.13-.36s-.08-.25-.13-.37a4.66,4.66,0,0,0-1.27-1.71,4.71,4.71,0,0,0,2.11-.32l.35-.16c.06-.12.11-.23.16-.35a4.71,4.71,0,0,0,.32-2.11,4.58,4.58,0,0,0,1.71,1.27l.37.13.36-.13a4.58,4.58,0,0,0,1.71-1.27,4.71,4.71,0,0,0,.32,2.11c0,.12.1.23.16.35l.35.16a4.71,4.71,0,0,0,2.11.32A4.66,4.66,0,0,0,96,23.26c0,.12-.09.24-.13.37L96,24A4.58,4.58,0,0,0,97.3,25.7a4.71,4.71,0,0,0-2.11.32l-.35.16c-.06.12-.11.24-.16.35a4.71,4.71,0,0,0-.32,2.11,4.58,4.58,0,0,0-1.71-1.27l-.36-.13-.37.13a4.58,4.58,0,0,0-1.71,1.27,4.71,4.71,0,0,0-.32-2.11c0-.11-.1-.23-.16-.35L89.38,26A4.71,4.71,0,0,0,87.27,25.7Zm4-2.07c0,.15-.09.31-.14.46l.43.24.24.43.47-.14.46.14.24-.43.43-.24c0-.15-.1-.31-.14-.46s.09-.32.14-.47L93,22.92l-.24-.43-.46.14-.47-.14-.24.43-.43.24C91.2,23.31,91.25,23.47,91.29,23.63Z" transform="translate(5.49 24.58)" style="fill:#f0b04c"/><path d="M63.73,23.63c-4.25,4.24-7.19,9.8-9.2,15.64a40.74,40.74,0,0,0,17.56,4.55,40.57,40.57,0,0,0,4.56,17.56,40.68,40.68,0,0,0,15.64-9.2c4.24,4.25,9.8,7.19,15.64,9.2a40.7,40.7,0,0,0,4.55-17.56A40.7,40.7,0,0,0,130,39.27c-2-5.84-4.95-11.4-9.2-15.64A40.68,40.68,0,0,0,130,8a40.57,40.57,0,0,0-17.56-4.56,40.74,40.74,0,0,0-4.55-17.56c-5.84,2-11.4,5-15.64,9.2a40.68,40.68,0,0,0-15.64-9.2A40.61,40.61,0,0,0,72.09,3.43,40.61,40.61,0,0,0,54.53,8,40.68,40.68,0,0,0,63.73,23.63ZM69.58,33q1.47-4.76,3.22-9.4Q71.06,19,69.58,14.22q4.4-2.31,8.93-4.37Q80.57,5.32,82.88.92q4.75,1.47,9.41,3.22,4.65-1.74,9.4-3.22,2.31,4.4,4.37,8.93,4.53,2.06,8.93,4.37-1.47,4.76-3.22,9.41,1.74,4.65,3.22,9.4-4.39,2.31-8.93,4.37-2.06,4.53-4.37,8.93-4.75-1.47-9.4-3.22-4.67,1.74-9.41,3.22-2.31-4.39-4.37-8.93Q74,35.35,69.58,33ZM63,35.76a2.53,2.53,0,0,1-1-2.87c.77-2.54,4-1.83,6.16-1.19-.22.7-.43,1.41-.64,2.11-1.15-.64-3.16-1.81-3.88-.56a.58.58,0,0,0-.09.32h0v.08c0,.7.66,1.07,1.46,1.28-.42.71-.62,1.44-.12,1.94l.05,0h0a.79.79,0,0,0,.3.17c1.39.37,2-1.88,2.34-3.15l1.95,1c-1.08,2-2.85,4.76-5.2,3.5A2.5,2.5,0,0,1,63,35.76Zm0-24.27a2.5,2.5,0,0,1,1.3-2.75c2.35-1.26,4.12,1.53,5.2,3.5l-1.95,1c-.36-1.27-1-3.52-2.34-3.15a.79.79,0,0,0-.3.17h0l-.05,0c-.5.5-.3,1.23.12,1.94-.8.21-1.45.58-1.46,1.29v.07h0a.58.58,0,0,0,.09.32c.72,1.25,2.73.08,3.88-.56.21.71.42,1.41.64,2.12-2.16.63-5.39,1.34-6.16-1.2A2.53,2.53,0,0,1,63,11.49ZM80.15-5.67A2.53,2.53,0,0,1,83-6.7c2.54.77,1.83,4,1.2,6.16L82.1-1.18c.64-1.15,1.81-3.16.56-3.88a.58.58,0,0,0-.32-.09h-.08c-.71,0-1.08.66-1.29,1.46-.71-.42-1.44-.62-1.94-.12l0,.05h0a.79.79,0,0,0-.17.3c-.37,1.39,1.88,2,3.15,2.34l-1,2c-2-1.08-4.76-2.85-3.5-5.2A2.5,2.5,0,0,1,80.15-5.67Zm24.27,0a2.5,2.5,0,0,1,2.75,1.3c1.26,2.35-1.53,4.12-3.5,5.2-.34-.65-.7-1.3-1-1.95,1.27-.36,3.52-.95,3.15-2.34a.79.79,0,0,0-.17-.3h0l0-.05c-.5-.5-1.23-.3-1.94.12-.21-.8-.58-1.45-1.29-1.46h-.08a.58.58,0,0,0-.32.09c-1.25.72-.08,2.73.56,3.88l-2.11.64C99.72-2.7,99-5.93,101.55-6.7A2.53,2.53,0,0,1,104.42-5.67Zm17.16,17.16a2.52,2.52,0,0,1,1,2.87c-.77,2.54-4,1.83-6.16,1.2.22-.71.43-1.41.64-2.12,1.15.64,3.17,1.81,3.88.56a.58.58,0,0,0,.09-.32h0V13.6c0-.71-.66-1.08-1.46-1.29.42-.71.62-1.44.12-1.94l0,0h0a.79.79,0,0,0-.3-.17c-1.38-.37-2,1.88-2.34,3.15l-2-1c1.08-2,2.85-4.76,5.2-3.5A2.5,2.5,0,0,1,121.58,11.49Zm0,24.27a2.5,2.5,0,0,1-1.3,2.75c-2.35,1.26-4.12-1.53-5.2-3.5.65-.34,1.3-.7,2-1,.36,1.27,1,3.52,2.34,3.15a.79.79,0,0,0,.3-.17h0l0,0c.5-.5.3-1.23-.12-1.94.8-.21,1.46-.58,1.46-1.28v-.08h0a.58.58,0,0,0-.09-.32c-.71-1.25-2.73-.08-3.88.56-.21-.7-.42-1.41-.64-2.11,2.16-.64,5.39-1.35,6.16,1.19A2.52,2.52,0,0,1,121.58,35.76ZM104.42,52.92a2.52,2.52,0,0,1-2.87,1c-2.54-.77-1.83-4-1.19-6.16l2.11.64c-.64,1.16-1.81,3.17-.56,3.88a.58.58,0,0,0,.32.09h.08c.71,0,1.08-.66,1.29-1.46.71.42,1.44.62,1.94.12l0,0h0a.79.79,0,0,0,.17-.3c.37-1.38-1.88-2-3.15-2.34.35-.65.71-1.3,1-1.95,2,1.08,4.76,2.85,3.5,5.2A2.5,2.5,0,0,1,104.42,52.92Zm-24.27,0a2.5,2.5,0,0,1-2.75-1.3c-1.26-2.35,1.53-4.12,3.5-5.2l1,1.95c-1.27.36-3.52,1-3.15,2.34A.79.79,0,0,0,79,51h0l0,0c.5.5,1.23.3,1.94-.12.21.8.58,1.46,1.29,1.46h.08a.58.58,0,0,0,.32-.09c1.25-.71.08-2.72-.56-3.88l2.12-.64C84.85,50,85.56,53.18,83,54A2.52,2.52,0,0,1,80.15,52.92ZM56.6,38.41c2-5.61,4.91-10.89,9.11-14.78-4.2-3.9-7.07-9.18-9.11-14.78,5.41-2.53,11.17-4.23,16.89-4C73.28-.89,75-6.65,77.5-12.06c5.61,2,10.89,4.91,14.79,9.11,3.89-4.2,9.17-7.07,14.78-9.11,2.52,5.41,4.22,11.17,4,16.89,5.72-.21,11.49,1.49,16.89,4-2,5.6-4.91,10.88-9.11,14.78,4.2,3.89,7.07,9.17,9.11,14.78-5.4,2.52-11.17,4.22-16.89,4,.21,5.72-1.49,11.49-4,16.89-5.61-2-10.89-4.91-14.78-9.11-3.9,4.2-9.18,7.07-14.79,9.11-2.52-5.4-4.22-11.17-4-16.89C67.77,42.63,62,40.93,56.6,38.41ZM70.83,23.63Q69.61,27,68.54,30.37c-3-.87-7.63-1.84-8.74,1.9a3.7,3.7,0,0,0,1.51,4.19,3.7,3.7,0,0,0,1.89,4c3.43,1.85,6-2.11,7.53-4.84,2.11,1.08,4.23,2.14,6.39,3.14q1.51,3.24,3.14,6.39c-2.73,1.51-6.69,4.11-4.83,7.53a3.68,3.68,0,0,0,4,1.89,3.7,3.7,0,0,0,4.19,1.51c3.74-1.1,2.77-5.74,1.9-8.74q3.39-1.08,6.75-2.29Q95.64,46.3,99,47.37c-.87,3-1.84,7.64,1.9,8.74a3.7,3.7,0,0,0,4.19-1.51,3.68,3.68,0,0,0,4-1.89c1.86-3.42-2.1-6-4.83-7.53,1.08-2.1,2.14-4.23,3.14-6.39,2.16-1,4.29-2.06,6.39-3.14,1.51,2.73,4.1,6.69,7.53,4.84a3.7,3.7,0,0,0,1.89-4,3.7,3.7,0,0,0,1.51-4.19c-1.11-3.74-5.74-2.77-8.74-1.9Q115,27,113.74,23.63,115,20.27,116,16.88c3,.87,7.63,1.84,8.74-1.9a3.7,3.7,0,0,0-1.51-4.19,3.68,3.68,0,0,0-1.89-4c-3.43-1.86-6,2.1-7.53,4.83q-3.15-1.62-6.39-3.14c-1-2.16-2.06-4.28-3.14-6.39C107,.56,111-2,109.14-5.46a3.68,3.68,0,0,0-4-1.89,3.7,3.7,0,0,0-4.19-1.51C97.19-7.75,98.16-3.12,99-.12Q95.64,1,92.29,2.17,88.93,1,85.54-.12c.87-3,1.84-7.63-1.9-8.74a3.7,3.7,0,0,0-4.19,1.51,3.68,3.68,0,0,0-4,1.89c-1.86,3.43,2.1,6,4.83,7.53-1.08,2.11-2.13,4.23-3.14,6.39-2.16,1-4.28,2.06-6.39,3.14-1.51-2.73-4.1-6.69-7.53-4.83a3.68,3.68,0,0,0-1.89,4A3.7,3.7,0,0,0,59.8,15c1.11,3.74,5.74,2.77,8.74,1.9Q69.62,20.27,70.83,23.63Z" transform="translate(5.49 24.58)" style="fill:#218283"/><polygon points="244.4 42.25 245.32 43.14 246.59 42.89 246.02 44.04 246.65 45.16 245.38 44.98 244.51 45.93 244.28 44.66 243.11 44.13 244.25 43.52 244.4 42.25" style="fill:#fff"/><polygon points="254.12 51.23 254.57 51.68 255.19 51.55 254.92 52.12 255.23 52.67 254.6 52.59 254.17 53.05 254.06 52.43 253.48 52.16 254.04 51.87 254.12 51.23" style="fill:#fff"/><polygon points="20.39 31.19 20.74 32.48 22 32.92 20.89 33.65 20.86 34.99 19.82 34.15 18.54 34.54 19.01 33.29 18.25 32.19 19.58 32.25 20.39 31.19" style="fill:#fff"/><polygon points="404.66 51.79 406.26 53.34 408.44 52.9 407.47 54.9 408.56 56.84 406.36 56.53 404.85 58.17 404.47 55.97 402.44 55.05 404.41 54.01 404.66 51.79" style="fill:#fff"/><polygon points="669.02 36.63 669.78 38.73 671.93 39.29 670.18 40.66 670.31 42.88 668.47 41.63 666.39 42.45 667.01 40.31 665.59 38.59 667.82 38.51 669.02 36.63" style="fill:#fff"/><polygon points="798.6 59.99 799.44 60.52 800.36 60.13 800.11 61.09 800.77 61.84 799.78 61.91 799.27 62.77 798.9 61.84 797.92 61.63 798.69 60.98 798.6 59.99" style="fill:#fff"/><polygon points="607.32 66.64 607.54 67.25 608.18 67.42 607.66 67.82 607.7 68.48 607.15 68.11 606.54 68.35 606.72 67.72 606.3 67.21 606.96 67.19 607.32 66.64" style="fill:#fff"/><polygon points="355.31 28.64 355.54 29.25 356.18 29.42 355.66 29.82 355.7 30.48 355.15 30.11 354.54 30.35 354.72 29.72 354.31 29.21 354.96 29.19 355.31 28.64" style="fill:#fff"/><polygon points="736.32 34.64 736.54 35.26 737.18 35.42 736.66 35.82 736.7 36.48 736.15 36.11 735.54 36.35 735.72 35.72 735.3 35.21 735.96 35.19 736.32 34.64" style="fill:#fff"/><polygon points="200.69 57.14 201.77 58.19 203.24 57.89 202.58 59.24 203.32 60.55 201.83 60.34 200.81 61.45 200.56 59.97 199.19 59.34 200.52 58.64 200.69 57.14" style="fill:#fff"/></svg>